<mxfile host="Electron" modified="2024-01-23T16:07:24.371Z" agent="Mozilla/5.0 (X11; Linux x86_64) AppleWebKit/537.36 (KHTML, like Gecko) draw.io/22.1.21 Chrome/120.0.6099.109 Electron/28.1.0 Safari/537.36" etag="BIqlHfca1Sg_QZAfi5hh" version="22.1.21" type="device">
  <diagram name="Page-1" id="Fy32TWAfRfoCeyibcSHR">
    <mxGraphModel dx="954" dy="671" grid="1" gridSize="10" guides="1" tooltips="1" connect="1" arrows="1" fold="1" page="1" pageScale="1" pageWidth="827" pageHeight="1169" math="0" shadow="0">
      <root>
        <mxCell id="0" />
        <mxCell id="1" parent="0" />
        <mxCell id="zH6UamQ9nqufOHWTHNJz-21" value="&lt;span style=&quot;font-size: 32px;&quot;&gt;&lt;b&gt;Matériel&lt;/b&gt;&lt;/span&gt;" style="rounded=0;whiteSpace=wrap;html=1;fillColor=#cce5ff;strokeColor=none;align=left;fontColor=#505050;" parent="1" vertex="1">
          <mxGeometry x="18" y="930.8" width="790" height="190" as="geometry" />
        </mxCell>
        <mxCell id="zH6UamQ9nqufOHWTHNJz-2" value="" style="sketch=0;pointerEvents=1;shadow=0;dashed=0;html=1;strokeColor=none;fillColor=#434445;aspect=fixed;labelPosition=center;verticalLabelPosition=bottom;verticalAlign=top;align=center;outlineConnect=0;shape=mxgraph.vvd.cpu;" parent="1" vertex="1">
          <mxGeometry x="230" y="960" width="50" height="50" as="geometry" />
        </mxCell>
        <mxCell id="zH6UamQ9nqufOHWTHNJz-3" value="" style="pointerEvents=1;shadow=0;dashed=0;html=1;strokeColor=#666666;fillColor=#505050;labelPosition=center;verticalLabelPosition=bottom;verticalAlign=top;align=center;outlineConnect=0;shape=mxgraph.veeam.ram;gradientColor=none;" parent="1" vertex="1">
          <mxGeometry x="376.99" y="971.1999999999999" width="53.01" height="27.6" as="geometry" />
        </mxCell>
        <mxCell id="zH6UamQ9nqufOHWTHNJz-4" value="" style="sketch=0;pointerEvents=1;shadow=0;dashed=0;html=1;strokeColor=none;fillColor=#505050;labelPosition=center;verticalLabelPosition=bottom;verticalAlign=top;outlineConnect=0;align=center;shape=mxgraph.office.devices.hard_disk;" parent="1" vertex="1">
          <mxGeometry x="520" y="998.8" width="40" height="54" as="geometry" />
        </mxCell>
        <mxCell id="zH6UamQ9nqufOHWTHNJz-6" value="" style="sketch=0;pointerEvents=1;shadow=0;dashed=0;html=1;strokeColor=none;fillColor=#434445;aspect=fixed;labelPosition=center;verticalLabelPosition=bottom;verticalAlign=top;align=center;outlineConnect=0;shape=mxgraph.vvd.ethernet_port;" parent="1" vertex="1">
          <mxGeometry x="690" y="997.6" width="50" height="50" as="geometry" />
        </mxCell>
        <mxCell id="zH6UamQ9nqufOHWTHNJz-7" value="" style="sketch=0;pointerEvents=1;shadow=0;dashed=0;html=1;strokeColor=none;fillColor=#434445;aspect=fixed;labelPosition=center;verticalLabelPosition=bottom;verticalAlign=top;align=center;outlineConnect=0;shape=mxgraph.vvd.cpu;" parent="1" vertex="1">
          <mxGeometry x="230" y="1030" width="50" height="50" as="geometry" />
        </mxCell>
        <mxCell id="zH6UamQ9nqufOHWTHNJz-8" value="" style="sketch=0;pointerEvents=1;shadow=0;dashed=0;html=1;strokeColor=none;fillColor=#434445;aspect=fixed;labelPosition=center;verticalLabelPosition=bottom;verticalAlign=top;align=center;outlineConnect=0;shape=mxgraph.vvd.cpu;" parent="1" vertex="1">
          <mxGeometry x="290" y="960" width="50" height="50" as="geometry" />
        </mxCell>
        <mxCell id="zH6UamQ9nqufOHWTHNJz-9" value="" style="sketch=0;pointerEvents=1;shadow=0;dashed=0;html=1;strokeColor=none;fillColor=#434445;aspect=fixed;labelPosition=center;verticalLabelPosition=bottom;verticalAlign=top;align=center;outlineConnect=0;shape=mxgraph.vvd.cpu;" parent="1" vertex="1">
          <mxGeometry x="290" y="1030" width="50" height="50" as="geometry" />
        </mxCell>
        <mxCell id="zH6UamQ9nqufOHWTHNJz-10" value="" style="pointerEvents=1;shadow=0;dashed=0;html=1;strokeColor=#666666;fillColor=#505050;labelPosition=center;verticalLabelPosition=bottom;verticalAlign=top;align=center;outlineConnect=0;shape=mxgraph.veeam.ram;gradientColor=none;" parent="1" vertex="1">
          <mxGeometry x="379.3" y="1010.0000000000001" width="48.4" height="25.2" as="geometry" />
        </mxCell>
        <mxCell id="zH6UamQ9nqufOHWTHNJz-13" value="" style="pointerEvents=1;shadow=0;dashed=0;html=1;strokeColor=#666666;fillColor=#505050;labelPosition=center;verticalLabelPosition=bottom;verticalAlign=top;align=center;outlineConnect=0;shape=mxgraph.veeam.ram;gradientColor=none;" parent="1" vertex="1">
          <mxGeometry x="379.3" y="1042.4" width="48.4" height="25.2" as="geometry" />
        </mxCell>
        <mxCell id="zH6UamQ9nqufOHWTHNJz-14" value="" style="pointerEvents=1;shadow=0;dashed=0;html=1;strokeColor=#666666;fillColor=#505050;labelPosition=center;verticalLabelPosition=bottom;verticalAlign=top;align=center;outlineConnect=0;shape=mxgraph.veeam.ram;gradientColor=none;" parent="1" vertex="1">
          <mxGeometry x="440" y="971.1999999999999" width="53.01" height="27.6" as="geometry" />
        </mxCell>
        <mxCell id="zH6UamQ9nqufOHWTHNJz-15" value="" style="pointerEvents=1;shadow=0;dashed=0;html=1;strokeColor=#666666;fillColor=#505050;labelPosition=center;verticalLabelPosition=bottom;verticalAlign=top;align=center;outlineConnect=0;shape=mxgraph.veeam.ram;gradientColor=none;" parent="1" vertex="1">
          <mxGeometry x="442.31" y="1010.0000000000001" width="48.4" height="25.2" as="geometry" />
        </mxCell>
        <mxCell id="zH6UamQ9nqufOHWTHNJz-16" value="" style="pointerEvents=1;shadow=0;dashed=0;html=1;strokeColor=#666666;fillColor=#505050;labelPosition=center;verticalLabelPosition=bottom;verticalAlign=top;align=center;outlineConnect=0;shape=mxgraph.veeam.ram;gradientColor=none;" parent="1" vertex="1">
          <mxGeometry x="442.31" y="1042.4" width="48.4" height="25.2" as="geometry" />
        </mxCell>
        <mxCell id="zH6UamQ9nqufOHWTHNJz-17" value="" style="sketch=0;pointerEvents=1;shadow=0;dashed=0;html=1;strokeColor=none;fillColor=#505050;labelPosition=center;verticalLabelPosition=bottom;verticalAlign=top;outlineConnect=0;align=center;shape=mxgraph.office.devices.hard_disk;" parent="1" vertex="1">
          <mxGeometry x="570" y="998.8" width="40" height="54" as="geometry" />
        </mxCell>
        <mxCell id="zH6UamQ9nqufOHWTHNJz-18" value="" style="sketch=0;pointerEvents=1;shadow=0;dashed=0;html=1;strokeColor=none;fillColor=#505050;labelPosition=center;verticalLabelPosition=bottom;verticalAlign=top;outlineConnect=0;align=center;shape=mxgraph.office.devices.hard_disk;" parent="1" vertex="1">
          <mxGeometry x="620" y="998.8" width="40" height="54" as="geometry" />
        </mxCell>
        <mxCell id="zH6UamQ9nqufOHWTHNJz-22" value="&lt;span style=&quot;font-size: 32px;&quot;&gt;&lt;b&gt;Système hôte&lt;/b&gt;&lt;/span&gt;" style="rounded=0;whiteSpace=wrap;html=1;fillColor=#fff2cc;strokeColor=none;align=left;gradientColor=none;fontColor=#505050;" parent="1" vertex="1">
          <mxGeometry x="18" y="850" width="790" height="70" as="geometry" />
        </mxCell>
        <mxCell id="zH6UamQ9nqufOHWTHNJz-23" value="" style="sketch=0;pointerEvents=1;shadow=0;dashed=0;html=1;strokeColor=none;fillColor=#DF8C42;labelPosition=center;verticalLabelPosition=bottom;verticalAlign=top;align=center;outlineConnect=0;shape=mxgraph.veeam2.linux;aspect=fixed;" parent="1" vertex="1">
          <mxGeometry x="379" y="850" width="70" height="70" as="geometry" />
        </mxCell>
        <mxCell id="zH6UamQ9nqufOHWTHNJz-25" value="&lt;span style=&quot;font-size: 27px;&quot;&gt;&lt;b&gt;Logiciel de&lt;br&gt;virtualisation&lt;/b&gt;&lt;/span&gt;" style="rounded=0;whiteSpace=wrap;html=1;fillColor=#d5e8d4;strokeColor=none;align=left;gradientColor=none;fontColor=#505050;" parent="1" vertex="1">
          <mxGeometry x="350" y="720" width="458" height="115" as="geometry" />
        </mxCell>
        <mxCell id="zH6UamQ9nqufOHWTHNJz-24" value="" style="shape=image;aspect=fixed;image=data:image/png,iVBORw0KGgoAAAANSUhEUgAACWAAAAJJCAMAAAAZN/xYAAAAjVBMVEVHcEwYOGEaOWG8x9gYOGEZOGEZOGEYOGEYOGE0TnPg5+7g5u2Xpb8YOGEnM07+/v4aOmIzQV5OYZLs8vbf5u3T4u3u593h3NzOyc/AwMx8krx0iLUzO1Rtgqnm3tlcb5mOocOlq7xvepXZ1NTHzNdDTmlocIr5+fhaZYCBi6NTW3KQl6onKziyvM0sMj/YwuV0AAAADXRSTlMA5jFET86vb44WuHidy6LfggAAIABJREFUeNrs3dly2zYYhuHM+MjkhLIHYGTN4KDat9j3f3kVSQAESFCCQMuxpfdJF9txm7RH3/wbfv16PM95lpVlluVPvwAAADDeUyZr4vRDZmQsAACAkfKsiVZCalnO/xQAAIAR8aqUwkQrYYJWScQCAABI85Q7vUFZ2px1kj/zvwcAAODqeJVVWaopWbWESVwMYwEAAFwnz2y1qvTZaSwiFgAAQLTnvDSNwW680mWs5kdJpxAAACBGfZZBl6nKAc13nP7gNBYAAEB0vBLD8comLC5jAQAAXFD1BoVOTuUlRCwAAIBLzMn2qHhlB97rQMYwFgAAwEC8Er27DBfLWOYyFmUsAAAAV9sblNfEqzZi0SkEAABw1SfbzQnR8mr2wDvPFAIAADTxKrOD7UKWSWwVi2cKAQAAqpPtYuho+/UZiwPvAADg0VW9QbMImFy+6ncKiVgAAOBh45W+KSpKed3q4OXLWHQKAQDAI8rb927E6OqV/xR0PYzFZSwAAPBY6r1Bc5ahqmCVn8akNjqFAADgoeJVJqUtXdU9ws/FMBYAAHgw+qaosO/ilJ+Oy1gAAOCBPDu9wSZm3SBfeaexGMYCAAD3H6/MTVF5zcM4q9kqqYxV/VJ0CgEAwP3K7cWrtoAVlZXm+/1if0ypYjW/FBELAADcp2a0XY+16+QTlZP+Wxdqvdssjok7hXWOYxgLAADcX7gSzmj7KfCIMrJ+dVwXtY+iWB9TB94rDGMBAIC7ildCCDsSJcz99pjx9v1r4Xrdr1KrWAxjAQCA+5FL0eQrW8Eyc1gXJ9s78aqiFqu0Mlb9ixKxAADAz/fkxCtbwiqj3nZeLVQRtHlPjlhCMIwFAAB+eLyqeoN1vrJn283zOJcKWO+bYthunvwUNDuFAADgPuJVe/Wqnr2q56/OTmC974rzDsek66M64BGxAADAT/Tc9AZtvBL2cHvdITzbIJwfisvWxxHPFAre0AEAAD+NKV4JZ6Rdts1BUZ5pEJq7DBclrRSW9gwXZxsAAMCPjlfN1SthPxp8gXC1UUW85JVC3tABAAA/Sj7V6Uo41atm6sr+kEO9wb8fxXUSVwqZdwcAAD9GO3olpHf0qs1WzZx7oHh1VH+vzlfVvPu85A0dAABwt2xvUHTOttvbV/az/lmGj1O8SshXo+bdeUMHAAD8oHjVbgyaP9uk1T+CdTz8Tape2Xn3Y3oVi2EsAADwXZneoH/3yukMOl+vc43zIo5KLl6NXCm001icbQAAAN/NkxevnLvtpTvmbpcJZZu1dG+wGE9tEiOWznt0CgEAwHeKV7Y3aJqD0plo13ca3EXCdvx9vv77OfGqeULnfcTxUXYKAQDAt5F78crpDkr3yqiwg+5Oxqr2BqPildptduqWK4W6sEbEAgAA3yFetb1BYYfGRXtftDTJSpTSH8Qq97F7g4f5djKZiPn6diuFpRkN42wDAAD4t55y4ccr6Q6ySxut2vNXtmW4WnxEVq92s4kx291upbC0v+ucMhYAAPhn8artDbaT686JBunkquZDW8Cabf5GxqvNauJaLm73hE5p/xPoFAIAgH+i7Q366cp7FkdKt01o4tU89uqVWkwnXdO9ilopnKWVsXQOpFMIAAC+2nM3XtnFQCH9J3Hc7mCzTRi9OKj2chIijq+3Wyls3ynkbAMAAPhC7lkGIdx05R5ncKev2uui0YuDr0cxGRI5716vFNa/w6vLWBx4BwAA/yReyfbRQdselO3R9tK/L3rKWjJ+sr1ZHLS23Yi1jV4prH+bV0csHRE58A4AAL6A0xu0h6/q8wb6SntZfeiuDDZVrOqz+Ml2Z3FwOGbFrRSu56ff8J/qt5rSKRQceAcAADfWvogjnXQlnSSl61dty9BWtd7ryfaExcFhkSuF+2lSxCrNUD6dQgAAcLt4lQmveiWct5vdUwzuczgmgsVPtgcWBydbOZ3KbaCOFbdSeIpsp9/Fn+sjlml3ErEAAMBNtC/iSNsdlG7K8i61C9sylNdMtgcWB7fv+4Pu9i3m0/SVQlGXsRKGsar/CsHZBgAA8Nme/dEr51VnO3xVDyy1EUuXs6ov7j/SFweXiyY/mULV4SiTVwrTIlZp3lbkwDsAAPhE/sn2zrs47R6h9G9fNT9XLw5GjV6t+4uD002brpQ9IbpKXimUqRFLcOAdAADcKF5Jt4Jlj4p6e4SlN4I120UWr7p3GSp/FnWuMvFK2U8CS4azTdQrhanz7rqMJTjbAAAAPkGvN9jWsHrP4nh3RU9/jX4Sp9jMAsNVylStvEF2NRDHYlcKl6kRSzdCOdsAAABGsWcZpF++crYIOzdF7YPOopyrEYuD27mdvVJOAav9ZN2PWLGvFK70MFbqY9B0CgEAQHq8ygLFK+m0Cs3qoH3JWdoHnevJ9o/UFwfroSpVdCpY6uzM1hesFJq3oDnwDgAA0uS9eBXSG2qX1022h14cFDpe6VSl2r/pMSylPw38w5Erheu5bhTKMmngnQPvAAAgIV5Jv2olnRah9ObdvQNYdWapn8T5KK5fHPSrUMoJWeHaV/hu1vwQu1KYFrH0Kzp0CgEAwDX8F3ECI+6Br9qvx0+2BybV6zkq5bcFVdFZI2ynsarPAx3GtxuvFOq3oIlYAAAgOl5lw/3AYA3LFf0kTvBBZ7MJqLxs1fYHexWs+ucCM/K3Xiks7YF3OoUAAOCivHv1Sg4sETpD77beFf/i4GbZn2yf7Qo7XtWdwXK6gs4Qlvm5wL/t5iuF5sI7ZSwAAHBW/0WcgTXCUNySY14c9K+xq94MlnIKWr3vOn2wW6W+UnhIXiks9Vg/EQsAAAx6yvv9QHm2VeiY7scsDspTGOpOV/kzWN1ZLL/Odfqgajluv3il0FzG4iloAAAQjldZL0HJgTXCTnvw9MeyvsuQtji4nWz3quimqP4MVrdd2P2u4tCf6tq+X7VSKJJXCjnwDgAAevKpiBQoX71txiwO2lKT6sSrgWMNKjipVX8YOvsQv1L4J3kYS3DgHQAAdDx3r145c+uhcOVXs+LPXgUWB3Ug2poRLGdhULmNwO7fi/53DUasK1YKEyOWvgTGgXcAAKBFnGUYWiOU15y96q36daLQ7NBp/fmVK/USjFe9hmFwxCtqpfAUAEdErOY2Fp1CAADgxCvZKVudrWGZfyD+LkPgWFXPatOfrnrxZ6+U93yO3zBUw+fdv2ClkKegAQBAI4861S57yar5s7rLEFW86laVtk1bsB+xpouhLUJzquHlUgWr/s46zm3TVgpl6vFRcxqLiAUAwAOzL+LIzt6gvz84EL3GLA5OJsv9WhWvi1nwYEPgDpaXo1QRmtTyylxqswpcMo1eKUytYunbWEQsAAAeNV5l50tX8uyh0XGLg28bc469CV/bfjfP3yLsnBp9GahgKTeW7d4mX/9Kod4qFEQsAAAeUJ4N5ajQwavud80OYxYHZ4f2tRsVqm9t9dWGXgcwULFyjzYUrwtv2/Dw3h+mj1wpXCzHRKxTxipZKQQA4NHilRyIVPLcRJZ0Xhz8iFscXAWfxFHej6onN/hwjnKrUio0c9V+aTffbtf+5fdQd/LalcLEjHXCSiEAAA+jfRFHDrcE5dCRhvjJ9t7i4LaZNFd1rvp9+suLKWOpzXs3CIlF4Gx7YGvQfmlRXYFYeFUuNfAwzxesFGp0CgEAeIx4lV0sUQk5OIfVvDgYd7dTBmpHr036+a26VaxAGWvfiUqdWOUtGR7mdYyad5/Tqf/tdcTaDj8tfW5+TI7qFFYRi04hAAD3LpdnctXFHuEqfnEwUDea7lVTvXKCla5hNUWtTsVr5g2yq94ou6pn3etSme5ELr3bDs7UViDsTeJWCl/3oyMWnUIAAO66eJUPtgFloGzVfT5nNmpxcLmxsedV56PfTUhSv01ievVy0DF8nKFbv2qznFgXoQn42mLZPyEft1JYPaEjU++70ykEAODO41V29gBDsDXofOd8zOLg5G2n61QvTeh58RuEqvm8cA8rLNtpK+X3/Jwv/c/emTW3jcRA+GGfYpUoMhyVwuxseamDI1Gl///3VrwBDIYaiykl9vaXw7HkK4kfuhqNhq2mT+bOPK9luThTAveRK4VJVSCMBQAAAACf1VvAvDLhxivySvRJHHVx8FZPUqkRWd3viQxi2Xoyvlx+YnIpncoYpjkgz21dSQ/W9DuJbdWK8otcKWzy7u2g8HmJdcSkEAAAAPhSfFuZfP6yoJkrwdo9vzg49DL0w8CU6qxuk3DIYd2fPZlpgudqNu6zYjTYvH7mm4e32S+sV2TK7DJypbDpd18osbYr2FgAAADAV+FRZbvyOD2cE38SR8uSu2srryaXShhX5NWMiLNu3Gf5wI92imYXIeV2Gal7t7T6nV2C1lobIlcKF/a7Y1IIAAAAfEl5ZdR2dqOrrv71+JM4ocIpX1al0/YgcbJOQl+Fmhn6SlH5mR5rpFFiPb1SaKvjcomF2gYAAADgs7My83dwjOZdGXYSJ66zXa9Mz5iMssxjWvOou9BX1j/yPL7z5eCbUFV2h0bgWR8Ej2+1g0z31JXC5DyUj25R2wAAAAD8P82rVR4OspsHufYPncQ533xTaLcfy65GmeMVjI5e1smo80F2abB90VeKylLSrEOzu+RtnebjLVgpHMpHDSaFAAAAwP9QXr09ylixMgbvOmF0sl0tQPhRsUJRMiNce0GsNdNXrtVX0sHqbanqh6KuNq7MBqgsI4ZWdqlI1p2USbgnVgp/Rd4dEgsAAAD4hKx2uis1X9w+Wl0fOImjLA5uirMSYk8952o0tKR/RVLppAZLqYfv9FGRZVxhiXs6VeEKWp41eGFPrxTay26xxMKkEAAAAPhcfFsZXzbN7g7yJ59aHHSTn1QnJHXlqyzSH9rND2vj56+4TLq//fnmNjrHLOMKiwmpupFlJhNFpcGDPpErhckvyLvDxgIAAAA+D/reoNRT4VBWUS9ZHGxrr2i2PCVZq3TqGU2mK4Ra/srS8zja6t+ktnanTCqsMdV+6gLxrhZlWsMnyJ6/UjiVj0JiAQAAAF+d1VtwQ1ApEfXDWOWixcGxl2E4NSiOO4/P9Ems1r/KH+SvkrB51XzKOsukwrLjaLB7m0pEuR6Ud8WuFJ6GvPsWtQ0AAADA1+XbKnj2xjwuGh0WByOX6QK9DMS16qvas6R5wL+M09/HyZX+K+IyeZWijv3JnTOP/gvM5REdNnycHtkfnl4pHMpHEcYCAAAAvipjLcOcf2XCK4XxJ3HUg867C21bX/uhK8sWCFNVX43zPRvWcYx9pjCMBvuRH79gaPkxaBv460SuFNr9ofv3w6QQAAAA+Iry6m1OXM0bW+ZDyfZEWxw87LtAVZKJmvYhdLWe5Fc6rRKec/0+Tu8PKd6SUwuwGFyVdUd0PAcrYfWjtTKFzMssUm22WSxMCgEAAICvxsrM6ShD7Sujaa/4kzih0JL1+tN5VXs/LeTBrLOWvxpqFJQI/WZ3OVHRVfrq6iRGinnNG7DG+Lzlq4papCx2pbAul/e7Y1IIAAAA/GHm1SSvjHZncNbDarg9uzjYahJX1PLIYCrXB4epX1/dsO4CWmcXyF/plaKuqLKsfx8nC7AG80qqsoqYVjLgzrWWthQZu1LYlI8ul1iYFAIAAAB/jLx6m1NPRolgid3B+JM4IZfHBtYF+cNpa2A1L/tHKqf0X7XFo5rUMWWzL0g7HQ5SXlV+lupKY1cJ73lPvFuHC1YKs19RPoowFgAAAPBHQCrbzQOfSn3sAydx1OrzTl6R8PqaZaxEB9bYfZX4+moc16mtDIcubUVvQpvT7GxQBNyJqLKiDcuSy4d6viyJy7sff4HEQhgLAAAA+M14tQzThFCrZvBL2+NP4qibdu1lGav2tA97hCn3ttZjxSfVV26cD1q/UrR5/jaUMRShAix93XCXqU4VzWB5L9WVwquNzbsvHhQijAUAAAD8Tv56i2i2mnswPtmeVAd/l6/pZSC1V2t5apD8yPhTTS3W3vOvQuaVuY5WVUnfh8ir/VFdN8xPCal98HLtlppb5KVu1WWRNp9Z6GFhUggAAAD8CfJK6iYzc2+QPBd/EkeNJjW9DKL2anCs1jx/1fpaqThKuPf9q0yb8bkjabq6qgVYJ830at+3EvErPg2kzpW4YNiGzdxzK4WnayuSDCQWAAAA8AnlldOy7EaewQm4Wyb+JI62OLg5Vn2YKg01tDeSas1iV/THfiP9K3XGl5d0Dkjf6To8eJbv58Yv8hqItVtROSrV19KVwvNxucKCxAIAAABeziqwKRieEDITy5R20eJgcaaVV+n0Yu01YBHnitwfvGy4f6VWim4OFxZjp6UO5cxskAbcvWKGVJ46lPPDSQUuWCk8l3eBZRZOCt/wfQ4AAAC8krdgn6gmt+QDH0i216FehoSXtq8nWbImjlXo2vOF+1d+edVQesW2BIneKZTZoBM97wfLGttJbbvV7z4LR6uRWMrMchd5pbA0W4M5IQAAAPD59JWZKWEwAf/qIydx1MXBsfYqDfdepYnX0kA3DC/sI5aaCWXYbFAWNBxO2mxQfKEnUcrA/hzsxbJcebXhfvfUSmF1M2api4V9QgAAAOBVrILm1SP3ym3cssXBvpeB1lmt+XKgVoE1aqxOuFxmZJGjpVeMghdgqTNFEXAfPCkqmSztb5fnCWUevvmlq8wsMu6+0MbClBAAAAB4EX95t5ofFDNM9tVdvtQLFgebXoZGV2Xj2mDGOq+SKWTl97iP13SuMoseLL2ilPQt9nKm6H+gi9BLKT/u3L7unSckhhbRW+0h6OdWCu1lu8zDQu0oAAAA8BrefBXlmp/tD8KwZkgNrOk037wu0BYHd3XSu1aTSaV1XgkPKxtkVu9fXefdq931pMirqaDBhRTV4Uofu7FVQX+DkDtaeghrklha0n9zi5JYp+OyJBa+3wEAAICXQASTCwkVt6E1U27SVxsTIwtK7cOeu5s4d6E0OlYZtavWlh/M6R/rNvdGEXbVh4JDeL3KVPabBwPB2zmrRcA9CZQwWL5UmMjOhimFRS5B35RPWkatCRyXpbBgYQEAAACvYMUMKTf9FLqKb9U1llafH4rZgqv0Eijbn2smQzTiVil/7jQXeeA6Y17lXrBdK2hQ3rN1vcYQfN/gbv3IulUqsCyRWV4ma/r3cL5tdrOxu4ToagAAAAD+dN6GRFVYcYyRITc9QJ7bRYwJbenP4lwb7SZNV6l2bZBEstY8h3V/w2swMyVLr9idwTz4Xk3n6V6G4IfLO9Sw8m8PSpWlPNF/9dXxuc5Ru98u7cLaHvEdDwAAALxKYOWtwHLeT3/05jRJc4xQBydte+4SzFxl7Vgw1Y8RZvP+lVJ6FSpoCFa9X3nAnebZhY7ite70DYk1R+RWfVPyaFVUobtZ6l8hhAUAAAC8BkMGhIp9RbSWeMmei+kZOO/8D7+rWHv7oKjWZF7Ilgj7eveE+VdyjdAEZ4Mtx00otzXVOexpHosedWbaKpVdWOz6s1eY1WpD7fDzJaoCv61ogMACAAAAPgMkgTXnYLlHsfCYtsxLrrpffHuwbxDNErlBmLJ2hqB/pZVehQoa+MTy7A0Rx4C73BvULz3bhC8TpmRYaJV1yv7z2rh+hu2vMLBu+I4HAAAAXiOwmmJRkz+OYPn6i774UBRrI6JYajPDevb4cxlfeqUWNIhOLlrnQIaIbgy406JRS+eEKXtKj2d1r1ZKGVgRs4ZZtdNB88EI1v2/VSawbjeUuQMAAACvcrB2RVHs5j0s55tYMrceoxXUKNaVJ61Svju4JibW1JZVKiZUoPRKK2hwc5GtmxdwJ4oqldl1r+1KxLOG9z0f/H+9wzlmOngb5NVHhoStYh6Nq7/f3/89Hm9HCCwAAADgFbQF7kXDDxOxRSjFF32i3wuMi2IxhdNGsdZ2prJdBrHKjwXb5woajJRlIuDuxaysn7fibVeKg2VPSvWViam4yC7bUV/l/ctIeXX/DN1r/743/Lzd4GABAAAAL3OwjkXHMZ/bI9SlF9dKUXntizKObKNYdjpFOOwRiguEw7OlMuJLHuur2v/MxX6uhbRkMSsbsqnouRzmeA21WNnVPRdbI9PBJoAVOSgc/5p5Oxj82eqr939uGBECAAAAr3OwipGdC64RhsaHwtyKGXoNUSz2ycoTXRzs9wjT0dhiYaxSxrjOXTD+AV5Bg9ZF6gXcvVw7y2AJe8tqI0MrJGX04mVS99PBxru6/2p+tH80c4F34kTe3/z4z/f3nsbB+gvf8gAAAMCrBRY3sR5tDioW1oIolrtyDytwkDC1Ql8dLkMv1iOBdYzYN6QizJwSMvmzftDKJrIHKxFHC20o217HTAevxLLKe3Nq20qt8E6hoVVl29vP76O+ugusIwQWAAAA8BsEVlEcnBBQ7HZOIIS1YW8aM/s677RMktLfPtpXqeZf5WVNTKXIggYnWhnmA+4jKbuVox53HlcJU9IPquwsRt3I3k/Jq05O5du8N7MG3WXkuNDQ/xZ3+97wDgcLAAAA+N0CqyiMd4Jw5nCfb2S5yPR2NzfjH/9wZvPAVGt6nySQ+7FvNM34tgFhlfrZ9eC+odLgbtUIVsqy7FZTWrbdAFSOJMYE1ZK6GHRUK61aXTU5WPnwDLey2L+m+btRV5O+goMFAAAAvFJgHYXC+pF7LaNuo6ewXKCzIeZ6jtaK1QwYtV3C9fh7Sbb/ukniZG7FFDTM7htWPOCu1y9YGW9nVwdT8qqabY8pFu3OOo/GVT8hnBys7X/sXYty2soSLDiSEMmVWNilMIlcMrbI2lD+/9+7SNr3jsRKPEycaWIHAyfmqLDc9PR0S8pFWztW64C3e4w+y5perSyChSb322M+nUY1plM81ggEAoEEy8Eb9zgT75OwnEfywMgGacWyAreOS0O2Io6IJPWrE0kSNi2Tj4UENLCesCzT4P5U2AYsb4vQ7n62JCzxX0DrkkHBovV0cK3Gg623nVHTg7Ve62GhkLPsb0Z/rVb2gLBVsPAVfztMZ2kyISYmcTKLkGchEAjEv4gfIMGq54R+uTPownLmhAbdGmvFajugDRcW0RXPLSPbfOyNskL9qPMBDdVr35bhm21wB/oEzbir3AsatUaJrredhwaL1rXOxqYglaPBVsES80JqaFjNg6nFcquyIVcWv3quFSx8xd9It4ocbmUgTqd4gBAIBOKfI1gcJliG2b3Hh8UdFsYtw3uQl/uDLjy7fBM8SqwxYROCtdy29nS5ZEjE/VkOxDQQbzeQ9rdAWwb3g1l8U+S+o93KvrLlq/oD8razIPNVOx2UrnZJp5qwBqVaNQoWW2t3FrUMbY18VTr6Vfn7xK9+4iv+FogS0o/JDHUsBAKB+PcUrLctCAY5sYA6QpeFGTeHpBEsQSvWQS0QLvUIcNuGMrix7krf6g1oePvYh9cUvvoDwcIa/1liFnHvcHPbeXCwaFvr7FAp4bkSdErwLibZV33N+m7SfWU53Nskd/S434JexSQAKVIsBAKBQIIlQrE6kq464rCcB/LFYqAVy+2AVgKWELOORiiD2wLdy68+A1qgHYO7oV4V9ngwdzpy/Fpn2Nu+DJwOtsNBtS1YG6wk16Jr6XcXo8L2a0rNo86ehfnKEbDKl5fdC/6SvzrmCQlEigcLgRjysxXN0qRGms6iyNgamU+j2SxN0/YePKshHplgrbdd2Jj+qz4By1ks1LSMB4USQFmctRXL5lB/gFJCXQ7d7cE6BLRAewZ3yH2l8xl8eqU98ZC3/SkkWDTf71Sns/SyryWhUiuE9V0tA5P0y873apxX/oCwfH45AU9F18ZsQoIRoxcLgQjFNCFZDSI+Tp8ncZzE8YTIGwRinMAjHhM/TwRr00mwmmT3RaAFy5oPGncFObuhVCz2R9GorDGzm/FYXj/h6RHLC2Aa3Je5U3sDRLabPndTwbK5Ih8QLKqD26X5ilFjjdAMwdKmLEatY7YW8pXncEeCdRukZBAiPGIIRBCSrAPEZlftbTM8YIgHJVhs24MNOBF0tgbBdh3NsUKyCcBUrOo9dyKxMiVaZX6TDuRvD4RjcLdSQ4kf2V6YhnYjzeFQQVJcHhzNwNReoJCuZA6WFYIlBa7TxZrO0hfhvAIGhCeCdUSCdfVfAmQg8PcAAhGAeZwNQ4znNsTj4b9zBKsVsboYFHyLI2HxMIM3lIq1+NzbkpVfUEgk68qLYoRyRSCDux25AEa2e7lYzYjP45eBwaL5oaJCu9Lmq1bB0hzLNGY15Ita08HG3N7OBn2He1n+RgXr6/kVMiwEIgRD+RUyLMTfSbCsxIaFVUxo0SzubxEatwe150BWrDZ41DBdEbOikOirJ5aVd/bknDO4G0LQzpkMFhCdKqxIUZESceRjg0X3n5QavTiG+UosDEoPlnC/t7fb49vG3C4oVokK1j2QkhHAKSECcfZHKxuOBA8b4uFA/TJCF09PrM+D5RrhO9Kz3g5DUrHcDmh7a5D448GWhBWDtasug3vhxbWbkfJuKJbtbedGt2JgNANjutlZma+Y8FlpxiVlrdqGZYXA0p0hXq08h7tUsPD1fkVEZBTQ6Y5A9GNORhCsDNVhxMOBnSdYJ4bVUixAt/JTGvzlQplAGpJUIK1Y3OmAbhWqIvMCsEzqVW/4jZgS7je2wb0wzFX6KqRgaffVn83YYNHafKW0K6ZolJkiqqOv1opr2fy1Kk3xqvQt7kLBwtf79TCdjCNYMR46BOLqAlZGJnjgEI+GH2EE6+mNduhWvhuLe1xsSNbm4QnQyj73SqbKrHh3T9HKhxMsI4aLv4PZDEDVs1nqnEPe9rBgUWG+WpvRV2u5SKhTr3TrYKtg2ceW/dbJV6hg3QsJGQnMw0IgejHJRgHH74i/kmA1FGvD4SVBMMO9Y1AYFFgAWrF2yxwSrXInFqut1DnjviKdCe4fplxVGDXOhQjAcrue64vlbVc5bOO9AAAgAElEQVRZpctB5itqSFh6Uig2B6nROtjkXzmHRidfrQwZy1OwXl6O+Hq/noBFRgOHhAhE38/WOH6FLizEw+FnR9uzo2Bt6z9s0dWPYzvdOTROFDdsDyNTsdoOaEOzIoVKGLWi3ZfDVKxXcxZpFTeDjEqnYRVwbjsPDxYtjid6ZZjbzZgruSpoGN5FfoNT3liZe4NawiohBet/+Hq/GuLxBAslLASiB7ORBIvgEg/ibyRYJ3pV1SLWEzwn9BkG70xyCCuNUQWF3JG/CpIX3ReiRa1QfvVuykFHKJ6hcFJF7ZkhZMsPCxbNX5khXxkDQmnBasUsFeLOjN1BdVjYr5W0XK1sooUE61EFLIK/BxCIHiRjCRbOCBF/IcHaCgWrtmIBm4NQ/ihU/yzvpa9B3iRg7lYdRKy77b0i3oahw7BI59Bwb40jnwp/BOjENWitrJlmbkYHi75XSr3SfnYR0M5EBaG6VTXjONPBz1K5r2yi5fGr8hcSrGsivYRgoYSFQHQjHkmwcI8Q8YgE620bNCNsPlWb3rwGb2LoLwXywPgC2Iq1z30flsx4t6WsoJXCT4fB7R0PVu4XPOspoksCeXirc2O+YsrezuTeoLC3s7Vux5ERWPWHnUi2fl5p95XxuYQJ1hEJ1tUwn1xCsHDdCYHoxiRDExbiXyJYLcVqx4R1tLsXJOr3P3uR5pbA9bkPT8Xi7nKepFRaziLSfUVUnU6+DBkUcociKn5UtM3OhpfdolhFDnvbw4JFl0faTAft4SC10kVFjjujKgJLJotysxhHDwUtioUKFkCK5tNpFM0Eomh6waQuIhcBRxkIROcP6lh+lWEECuIBCdZ6GyBhVa2EtZX7hBwUsLjdmMMhhau5LyjFQFmxzH+hDh4ljnblbBTKRIf6W/QTLI8k8dpMrxcIc6/eWXwGc9vDgkXzDybN7W6ZM5Wrg2uv39mZDspinNIkVmWPglWnNPx3d0oznzaX+de5jubTE6dKk3gCZBdOktnIJ5ZeRrBwRohAdGHsEiEmYSEekmBtzhOsSpqwWpLFgNkg9xQr5y9uq15stBXrxGNMEUuFYi3lV0vtxDonY72y3oBQpyinkLmjtredDwkWfa/U7qC0X1m1g46CJdYLnd3B9fPKZlaGmgUrWC8vx5sSrHnNY9IkSeITJicQ9+Q3iZN0Ft2Lap141em5qGED6cqGTkaFJsSXESz8RYBAXJ1gZeTqT2VWn9IE0hpC/g7CzEN7+3Q6xz2Xf4hgsW2gCWtbSZb1RrvmgF1ci/vG9+ow0oq1aKxY/kJhc+MS0LL6ctwBKarZV/StWEpze9+MDhatzVe0KcZR4VZSwbK/MuLcmds72EwHXXql1awSIFh1DNbLrQKY5rNE2yaI+ABOfxfKRgNOi8mAro1k+NOZkwuBUVgIxNUJVnbVM0vUnEXqt2bywzyPdf1omyc88D7xiEncvOGcItVCgiVNWI0FS2wUbnhnEEPPeFDW5oh7ghzhUBJC2wEttwYza5tQDw6JErl6q3J2QDvPnw4F6/QHzG0P87Y35iuVGKqXB5lR6tymtauE0bpIh9qHsiqtiaDtdC9hAeu5VrBu9LOcDmoOq080yS0JxnTgljeJBx+X6FKChSYsBOKhCdY0zm4MQbgmcTpDmvVd8V8QwRK6lTBhVa0li0Kx7WCSu91JaPKvxvE0KhWLfdhWLKumkBg1gaKksI9jvVe+n6x6z0EFy/W2DwgWbZKvKGVKqlLLg22EqHEzbeaHQteyj2ldjGOOBU2a1enAahWs28hXcUaGn1qSm51RZsOfTTz8exA0YSEQ35dgRSS7K+JkhrL2d0QowWp9WIpkbc3yHO67sXjXvNDlYEGpnP1WLMDvDl6W3R06gBWrYU2OggV72wODRWvzlRCwhLWKKpVKXjH6cOTF4ao7azRYrkzlqjMEq8kZPd6GYCUj/ag3Op3M7pGfk15KsHCfHIF4YIJ1b37VjA7v4J5A3Bs/QhWsrV4jlERLled0gXc1RJuhDdvRVqw6FIEoyapwZauab6n7zqwU7ncc7Jg2c69gbzsdYL5qoKKuWtlKe9vXWsaSEe6O+WpRPVualR3RoJJGYYJ1myrCaPT5JHqcpzM0Wz25lGChyx2BeFyCNZ9kX4DapYUc65vhJ2Ws2g5Jwto2lzYU683rzOnrJOTw6mGQgak4QqlYu6WOcNeWLF+8ykROVh40J7SsXrp+8H0DpHyFma+KI9VoS3DaSaGscmbiGm1YlYLNT+kvi1eVhoBlzgk7FKzbxGAl408nt9CwRhonBkpY8aUEi+CJB4HoYDdfT7DS7AsRo0PzO2ETQrCE82rbbBJKBav2u7fJ7vxMvLs7MHRqdXhQew6Y7Gl1QGeQJcvcMlzqSSEgYr1CxTdKnzpsRweL5q8Wa6KMMn1VX/ew6I++WlljQj0nLO+ZM3rBW73J9d+rjX3zO9CFNbmYYOHbVATi6gTrWs+AfCG/IiSbpOjH+jZYrzdvYSasJ5nWUNux1KiwoosFXFDY6c4C7t68j7Vibf50eK6Io2ipMh2YX53uKD6Y///AahWreN8C5DEwWPSwpWOwOBd9Va7AJcK7Eqz5JaeS6zuR0vu89b2cYOEJFIF4VIIVZV+N2y5aI+4Itlmvw9YIzbQGPSvUye68q53QadHxa6F5aHsObMU65IYNS5ivbPe7+oJ0DQrbhxRQJsSCbSCJLjBYdLmjF/EroaTtwGTR0iBX6jaYYB0fj2BlV9fC4/s8k4v51b+c0zCf1pVFUYQRQAgYX06wkuwBgBTrmxCsNTsf5S4lrMpaI5Salili8Q7xyhO3PE7Gd0WwFYv/n71r0U5bSYKB8Lx3EQLkRVrwUQzCExvZ//95az3n1SNGmpGQoNtOYpMcw4nxqKiqrpKCR3MbFue/cgtk5QpCoYSwysbB4+a6U3VYNwkWTXtxmsOrG9FXIZvPkDNYIL5Km3LaAFhjM7eB7YfTWLCsZ8JCgNWQGVjMuIR/d7qYIMrCsQWw3HsfIwixcGSAtddhsHJ4FWQmrOyzIJISG6q9WAoCq1Z7DmzFukp8FWW0cuzFslw8i5Wog0yaw1s1ssog3aZWNEPNEbhAdfTVVtogVDBYbVURmjFYtims5o+mXjDVDfS0uQ2w5s930IxnYMg/iiE44o9XY1dnLw41i26sOT4ZBk/Ye/sXT5PBKoOwfMaFlZJa5/OeWyEkyrhRyIJF6rXnFFYs7k6SDmi6Trhx2LJCFkAVtyT/wt0cN3m7oMvGlrKZDSDY0gwWpdEMJvRVEX21laOvQib+qlQKFQCrpSrCVZ8orOZ8Wj07mB6q2iCDxcKrij5IZLFwbBBIo3sfI7hRiAMwWFoAK1cHOR9WUMqF5/N5t16rk93Voe9CHqkWNUStWIQPHl0dpfBRR7JjudTwnuRobZyNtHwI0mTFvWkGix4/bJivaPQVk8rAFTzzGAvGV69tMVi/jPZt3JVd9uKeAKsepfVsL00rgxvdEV5GcPoDsCarHg2WPgweYHkaEiFrwooo0ioZrR+AxZBYlQIb4VktkeLavTv6qVhSMGjBUrmF8WrFrBMyJFUuFwrhpMzb55dC59QMFhWjGRouD6a9zmKsKLdIGPIQSwmwru10PY/6dHx0BbBG6MGqN7fy9bGcEQcBloLEQn532ABr/7KPAt0w94BhrbLo0Rxnnc8/7x6RtUAi01hgiQ69UStcCuSYkmBQtqDQVZFYrAk+kQvTD92cw8pvPoG1iprmq4bRDNLuYFhogVQdFHOwtroMVis/qGaVqJYjzZufjPW0SgRYtr8vmFuBY36mTO99jLRjxcJXH0OeJEZcC2DRfIacxIrKXKxMIzyLOqE6EAvwZ9UOQChTscQOaPltQ+GUyy8VujD0SrYJSfNg0c3VFF4Rmb1S5jOwDJZi2qsiNM08tnph7QpgTRFg1Rmd3MYpnsQ4PQFY81XPBr3uA56zp8tgRdkOYeAzDJZPW3OSt1wnrLCIE4jDkv69ns0JTMXKO6BdTguUk91XLI/lSjcyeViE/dJtRjMI6uBXyAUyhKyRXcJcYUVNTsFg3UX8ufXqzKpG2LwYsd7RPMOg0Vr/XXfJRMNBgPUgAAuNWAOef7z9S6RnwmLpKwZi5fuFCYHly1YscqtKBxYOtXJHjyDNFH3ShcGNI2a7UyO8K+W+Fx+UrYOkfrBo02gGQR1Mg9slJZDnrUIRYoXdM1imdPq0Hw+mngdrhlU5NWbc/RMB5+EB+VMBrBZKL3A6A1h6EmFQJoyWoVhUJfRzgJUirEInBLIaiCr6AKC6dHJHGSsWATqgi2VBl7NdUcbKZfXBEniBrYO6waIXO8Htf8BkhlDGWxyVpQRYrVURGq80W4UaXQGsOZY91xhNFRm9vDhmAMt9XICFCGuw86+3fzlrM1gR3Rwsbe5ZOSELsfYVfiuiXCkUXe/eu9O0oDBZ9WPsVyJdxRrd2b9cpSFY0CPX9LYfjc1XWW1QBpwuHHgSHFehYMYKKwisFgHWL9NeVJvS0KQjDt4YYD0TXbPUXApDowmOIYNlCYX0EWAhwhouwKpgsD4+Pr64nIaMxIqyhhxGJWRtWMA+IVGlNVS73rVyR2Er1v4kZbqvODs7FJl1dDZg/kOgFyzqvL+0ow6GkONKNGOF4V0A1tTw4LBpL+gKYI1NAdYznZaa3xQXryA4CLDQh/VMDNZ7/O0cT5zLnSIq3oNVUljgPuH6FqBSiId6zFFpxSKSFcsV1wnzKugVe1uJso4nEKvpBYs2jmbglwdzdfAibRCKjiuW0krVwQqI9ac9gGVajGqTzOkKYBmXES7wcokmLBwEWLhL+PDzu6KM8PMHYCW2IpqDxdnacw9WRPHWOVcJlTohkUTCip3CVOw7OU1TsZIOaDHyymGjRVdlakOWhPX3rKo51IlmeNvZoK+CUEoWDcVSZw5e5beE28t3/FnlcW8JYBmfRssePJa6yepTTGnQHt3YyBGexTjpLBBg4aLtIwEsT8Vg/U0BluO8vwWc5cov/mBuzRPdCwKL2yckQCyWitIi5d/mH+mFI4BWLHLNHVZcLyHwlvzGZ7cXjjFN85WNaAZSqoMCfUXVwJBzuofMLT8PM46/4YyGw6G1phwLqXzjPjyWmmfXApcI7X9P0OWOgwCr6iUI/oQMcJYVDNZHDrB+IFYR2l5ArMCHKK2Uw8pS3c9cP6G6PblSIsxu/NrUsmIRsAOaqSFMf7lCsOibQbCopWgGMVl0y3XhVDFY6X9QHB8VBNbhz7U1gLXsEfM97wrlTdCCZf9qiZcPHDOAtbj3MdJ2aw4+NwY43g/CUgCsaxzTcPJih7BAVXlGQ8SbsjgfVkXuaEUTNNANrSXTwalYafAovEO4yv7GlbztpF6wqGk0QxH9xewOXracmZ3xYIWAGSv731EBrEOrDJbxGqFFtNH8ZKx7cTcry3kmN8XoHlQmDgKsBwRYaHQf4pw9ZdvztWSwEhHui/decW05Bb1FVUI/Z7I8wGJFYCAFpDUUy4h6kQ2wFSvvgC5IK6DfGfS26waLHj929ncH5XpngNvKfytYtji+KABW2vXcFsAyXSO06L1p7sGqe08zVAj1ZrxCgIXTDcByHx5gYWXnACeJclcArDfKYCVz4mxXgkjI+LBYCsvn9wmJMoCU3Ng11FPrCisWkaxYbpmH5QqMFuht1w0WNY5mIKw6eBHyr7jY9pC25rD1OOXjVACsH3x1aK3r+Zd5G6FFaWjeGciboEJo/VuCFw8cZLBQJHw8gPXi6QEs5/LG5F+V8CoqkxoCn1JYfrFNmOmERCO8HYZhpFa0O5yKlRBgcsZo+r6BFxA37UYziCQbpakuW3XFs5zdvmUeZwxvEb4eMg9WWwDL+Dia3P2hNAj+HGERoWV+E1+d4yDAwqyGh5skCMtXICwBYDnO36CoeA58PrmBTXhnKKzs472IqIiylZCoIZh3chpbsdL2HFfuHvzYAbDP1wwW3Vx3NugrcHcwZNPbWbM7S2x9spgTBlivh3yLsK3nz6Q/Z0aHJ/McCSzbTw40ueOYAZxFT0403CTEYQGWp2x7/o5l+MI05jDho1G5WsiU5jBq4W7NRbvLge6kogq6/Oz8WceKxX3JnURiJbWDkUGwqHE0g7w7eLlpweJC3HmaLY6BqNHtayYRttT1/MvCGqE9wLHoDuMtR0hgacwMARZOj3+MB8dgoc/9oRgsGWA5zudbhqUiwYPlR0xcw9mncVg+sE+4roBTlTKinnYHACey/tpk/c40xf0KEGm6waKWohmE3sHt1hU7nnn/FYO5RFMaCLASAiv1YF1bewKNDI+M6f1P5gYq5RxT3DVgqIsAC6czgGMJYPWZwUKr4uDmd0UZ4TGGNLjM7F6uFGY0VvpGQ93LOCxKZnl6bYSS4Z23we8+tADQCUjFKpxYeRPh333zVufG0QyC41+5OyjBLM6KJdNXjvMdx6DH/TWLafhPa08g0zVC9y58ifGhNcWeZ7uXSjyKcRBgdRlrg9MNwNorJcJLrEAXGbbK9MGI82AVoIsiK5/bJxQN7ATGWxV81/5vYytW8El3BwPg3nSDRY+m5qvsHsXdQVe2YIVbPmo0FLIZOAZLsUP4+r9WAdaiN6/JGgOsJuTJuJFIOHqqF6DTu+BsHARYjwuwcBlkcADLU7Y9f8YqfSzIwRTkwSpVQp9zuit1QlJRoAO2FX5daqVisV/TPyVC4eUjgjNJNdXBFyvqYKDYHeSNV6HYlvMzoBUNBliJB6tdgNWfNcKmAKtZFNcE8dUtDHqnPDQcBFgPC7DQhTWwWXr7+gArS3YXtgiDMh8rYDLdferFKvYJqykqAv9J6qdUgR729c4D71s3WNRCNANR7g5upewrjrfKf4NlTKiKMCWwDu0CrHFvToymYmVD2a6+DWv0XH2tCwRYOAiwbFNYaFYc1ryoGaz3uAJnvFF4FRR0Foe6uObn0o+14zETqbK3q9OzvOB0rGPFWt+w2GsHi27erLBX0u6gC3mw+Mh2hbm99GB9gyFYqUR4bRFg9WeNsCHAahycsED+yt73AzMUcQwBzuTO998RwEIKa1izV5cRvrNdOZDZXWaw2IB3WpjDsll7dd+zAm2twUZDrVgsOBVLumtdb/sPYjOGVwTYHdyKPc4h30C4pRuESiAIVBGmIVgZg/W7vSeQ6RqhNe5i2jWFVo/Dmj3ZS8/lCgEWDjJY1rOw8CkyqDmru3I+qgBWwuYUSe5R+kfgi7oht0Yo7BMSHYWQQHRX8Wn0qW/Fqggw1Q4WdU7n5vCKSOogHbeCsOI5LTUQ/JYB1jYLaWgbYM1MTwxbwGPU+SvfGk73J5MHa1+ocDsKBxmsjrsvcDqYf9QM1g2AlZndWdoq82AxPYWMw91nKgp3PGlF1rWG1PNigWWD9KvoBoterp4N7xXYOygV44RCAlbOaVU9vngDC4Ttdj3/srBGaOvAaAqwDJS7paZMOFo8n3NigQALp0sG61kAFv6oDAxgeSoG63oLYOXJ7gWcimTnO4VXZ7aiENIJZUsWAeoJ+dv00NFJzZnpBotu3pJH2BRekYreQRcuGgQYrEodE+p6PnQiERqvEdoqy3HvwaCNZxrhV/NnNKbO8KqBgwwW2tyfHmApJcK3mwArNbsXkKpMagiYTCzqvqIEVvLhf2/EtxMokhS4USu7SrRikbrBollnITEQB9frqt1BsYGQqR2siL7iJcILvEN4OLTMYPVmjfBOSafLRWXo6HTxpMk1IwRYOE8NsNzRdDod2UdYWPk8pPnXe/EMAFae7B5EzEZhEY+Vh7qf2aQGn+sn1I4XVYuFeiAJLCjUDRYtQ99NFgcJ1DvoSvZ2mMG6QV/BXc+5Qni4tlqV05w5suxvXt7v7pfzGQSyRrPF5Glfbdb7drgIsHAeCmBN5/kLq+V4PnOtAixcCBkWwFKXEcaxnjuJVQYjTiQMaDMhlzvqM/uEBN4TFLugiWrZcKcVYSVZsXSDRS8B7anWR1dEzptQ9A4KBizQg3UbCX5LACsXCJMqwv/9+dPihb4nZTlNmTRLl/bleDKZLxbzfCbjJ49cHq+QwcJ5VoA1nQivwKY2ERamuQ+MwYpqtD1D816gqahEWhFT/cwGjjJCId9PSNS5ohUBC8k70azPOe0aBIsm6iKjUTYir9bg7iDYPwhuEepsOcpdz69UImxXI+zJGmFDgIW5Mn24TiKDhWMKcMZ3vn/m2QyIeGN7NBYeWUOa3xUMli7Aco4fHLriGSwfYLCKpcLdDYkQ4LDAf17TiqUdLFpElZYLj6RWm7Nyd9CV0VUooqvCgKXlE5MAVp7R8PP+59quy70na4ST+77wxTF6ViDAwnkUgKVIFB7PbCEs1AgHBbDUDNZFF2BlZndKXvFud1/KaqA81p7cNrpLtqvGfvXL/9m7Eq22kS2INdb2zgDtBZDHi2Kw04EA//95z9p7lVrqRRa+NxnI+DhYseTuUt26VV+4j7a9CtvBHKRbifRYfKMTy2YHl0Kzdh5eqXQHhVGEy4y72ldZz1ZbhNorUjjqYQDffg28JuwZUNcBsDxL+Cr70aYahbBmTYvBetMHWJXYvW4VbpINZdfAgKuGxHqWGosKFVocfKmeoCbFOr//fVWEV4ujRBHWx6tLYXaQRlQpHfGsyLTxWc/bbWPk/tcqwNJekcywF0PtImDo2Ur13EvAnxrqZzBYqO04QjN9QpgjnE7FLQzWRw+AVYrdT6zafUOEP79R4c8UidUxRIg5jFNCLNLDQdUztIc1A1YRhD22zkLys4OMdbuQwSoeXygfLQuw9tvqV8Fg2byErmOMcCDAgp3dTvUbT0fAYEH9CAarQyDlzaBHeGO1fpFaufcDWIWz+4bUYJ1qCishle41xCpIrMPzY8cUIW9JKn5E1XhB0ZoB09gOCw5ANAJJPa9jdpDJH6ThVo/jZbOe6xnCPOv57782r6DrGCOMxqTPoNiC0wB1iwCrC/vERpRYQLtPp57kTqO/VYywGLF7wnqNbsrvDLwiSKzD4bCS+4xyFu5tWdHquc0dWi1ZYxK3BVDzf1hvly3qK6oZyDFYvf4lHMCqRe45gWUVYGmr3L0RjwImcqyUZ/S+HwoAllZrzh3A6p6ZMYGwYDJnOvUmDyN87QuwcrF74TVaU1dJQkvdE0LtXpJYF4T1jNv6b7LsHEFzcfWuDa+qaUMivwfzqjAsPgLqWI4MskJy7RWlwVIXt9cAaycmsIooQrsAK7yK5WLgugVyhqvYJuE0QGkyWIZYHc96884AwgLCdzrVEkb43h9gPTy8NpE5p4q+2hBSd1LnLiSxWjkruV1DDXh0pViFNQMWvaCobYnrw8XMkZ/SDvqKlrWnRGDOsicR980ArBpebQsN1j82ryBtlbuR3dUftbEApQe64ZYc6icALKWlTBthIVCOTglgvQxPe5aK3TfJhqKvGkMsHmIlBcI6YI6swqL2W7ehg44U6+NNCPEwm4SIZRRa9UjZHWTpqzPTHUyXDLRSCcYRMFgLoQnWvogitMtgxVdxP+aPuixD0RUBzoW6PYClFsQc69s1wOdlQgBLGkY4DGAVYvcSWW1qnXsOuUiJO2XqniOsZyxrEGKpBh6To364ZJLwcTcMXi2OAisIpSlCRi2GjyRRhWTcVcpnEaZKzu3cEOFZPEO4L4zcrQKsO93JGH+8g4BbQTsVAM6Fuj2ApXir6KGrIP2hXFRLGOFxIMDKxe4Nh3VqmoYJw2AljbN7DrFWCkosMWFEWyrg9etAawYsAnS4TuXhCCxMP53uDp7b/K/SZZM4SBi3L4fI9L9pgLVtOoSFyN1qi1Cb8kYmDgKNh+2gtOEuACyoHwCwVHFPeBWkP5QbgCU1wvr6/BzcaTtWLg0bPjeHy85pSKwDpttwbfk4soeKB069iaDcmuGRbQQqO4s2zyVnB8UsVko0COk/DOtuflJZz0SHsHBpsAywrmKMEIYIr6jiMSA2FACskQGW8kKm2SQEEdaPYLA2wwFWIXZP6oBCwtidnCWkZgoLhPWMFYXtmNO3M0/sZ9lwPgphFWbQnvA3fWxHOndQHuxcO4o21qIDW5vfFMAiZgi31pNy7gyE5cxHWxeBardSfc8G7BdQuovJSJfusMtY2y8eKN+pVFsY4bcGwMrE7pUH1qlmsGi7BtYVK0dYh1UHSYTlvqOULKuPZUNuzYDbGSzc6d6O6dnBc01dIW5wUMhgDRbnU1nPFXlVGbn/tWvkrj9GaMIFyRsN2kHpt0AAYEFNH2D1ySPwx78nhXIEsORhhLtPLcODP5tG3r4hINYbD7ESoktY9AmxzBVB7PQpDox++aN2pL/X1EAglpFlcv4KU91Bee4gYyraCN0HiduFAKsRYFVZz38tX0O6ms1gtHUZpnGsVF9VHkjhoH4AgxU5+GcC9f6DGKyzHsAqxe50q5AWYpHwquGwmD6hqhgKc6E2apYN540IXvGMGe5KH6RnB+XjgwWsSmmQpeNBT0UREg3CcojQMoOlfTtmYH8dJhtF8Pm3UjMAWFBuAZapj7IOg9UH9fij35NCOWOwTIURisXuREJhQjtiJUSDkOawuPAcelKQslDAj7J2XpGes1M2bmfNQyWmEGIFFpbODiJa257yPqMa3UEOYJENwpLB+tfyNaSrcjewOIZjITsoA5sUnAeo6QOsXrSS5iAhNNUnU+snqdPox1CfBlrsfkpKJVYjdeetRhkOqyM8R27gwBJP+LHdsiE3bsckhsMSF1PcfgDc7CCSkVgEfVX9pxmhSAGsPSlyz4cIbQMs7alj/U5dBPeB11MRbBdQbgEWugaANXf0OsC9T6me5GGEfwwArMLZvfHFqnVYlNEoJ8Mi+4RYBHNwmxspQ2slUnnTx6kNTQmahbL5Qfy17LC+SpuJQZLFWurDKyrrebslXRocZD3fGQjL0ZdsDvPiApcGKzWD7QLKMYNlCqPHrpYxf0DPjogAACAASURBVOx7Uig39SIPI/xtAmDlYvfNKaEmCZOkyXpOCL+GIvqZ6xOK0ZXQFFRovo7Flg27I015iciq7qye7Ac8pR3iq5Q1wUpryPWh/w6TAGtP8FfbYorQNsDSDsvRBzr+SMAOygjehqlzqOsAWJ4r0BONfU8K5aZawghfzQCsSuy+SQiYRSflkJ4NB5rEwt0dOsbJXYSzVu+8FOt1JYo1JNEWFudJs3TZ6j+h9RXivRlSHnMtHkwCrO2Wcmlww2Bph+UEIx0B3AbaqAC2C6hbZLB6LSeatD+MEU4HYEnDCN8NAaxC7H4qURbph0Vm5Qi6hBeIJZO6P3Z6uuMaKGGRZUMW6yxxC8X8NywJ6GFmB8+dvgxkqzDVFbfXEqwdRWA1Ng1bB0bud9phOQaMiYc5RQBxch0EFmwXULcGsDTNbUDdMCUGKzGb9ix3dm/8sBKhBithOSyyT4g5yRUW+45isUTr6yyOdSa4K+aHYpHfFvOCpz0LrZAsGoc3GN2ZeXNrgLUlJO6FyN1+FOGdgTHCeJRlEbTV14K2YdoA6tYAlj8y6Q/lplrCCE0CrFzsvqExFqHBomIJKYDFhufgrixAzD7YPHA8V8eCZYmHWDabKHaQL7uDrdZXrCdD/XVh6K1tGCzKoqFMynHAYGmH5ej26jxYpKZMYEH0B9TNASy9u1JwNpkOwJIyWMfPzweD9afSYTV2ozyDleOtAwOxxF6jWCpJ56VbFZh6O76/H0/8X2KmBsXadh6xdc4ONqaiFcSqgdbZ2Bv7XQGsLWUyWmY9//plXWqkPUYYjnIAQLObr9gf5QKAAoA1MYClZ24D7PsPYLAMA6xc7F4zWJuEkGBJMnNqhLUS+SWICS3cFazDadZ5ZwYsthdlq+gOngX0FRK5ty/NejOQDNa5TCHckzk5jrKes9IMy9FOI5zDrn4lNVCONwMKC0oDYKHpASwt2t+Y7xeU7WoLIzQMsB4ezsdGg0VwWGR2ToGyDgdpn1CCoDDLQNHJzyIT0scWoy0sE9FjZnZwuZShLEJ2lVLy9tQkfVUArH2Jr0j6qjByt5+Uc6cflqPbrAsdLIhQNvseAHahbovB0qT94Y5kMgBLHkb4bRpgPTz83tTjhI0Ii7Mb5QCWwBSrxcCh9RGB6QIjase8XSkHu6ruYJf4KhXSWLsHCwCLEGBVvwoN1hXvq4aWxwjWqGnjq3sEaBfqphisGADWzTBYL+4A1sOicnYvDN3rKEJSg8XLsLLCjxIGqjU1h/dhb1d0SZKemWc+1bODZ7H1FZ/sbCwYRwCwPvbkBGEzSugkivDOQFiO5nIRjHnT+1PKC6PA92e+H0ThPHZ2GqqzAQjLacXefB5GURQEl5PuB3lFURjOvVFPxFAGy5To2x3A0tRVeCNfPdnlE2YXUFZhVpcrB1Cf4K1qCSPcWQBYhbN73SMkQ3OoaUIBwnpu0VdhNdwl7g1iugfICr0w+3X1a6lQqeDL0nB3sARYf/YpI28v/icXuTsAWNoqd83lYkiLEsEgDrmxBYxX6yzqC7I8vUYxICxHOHqeAelid6+/ontE7PezDGOPs1veEMDyJwiwiounXCqqqwdRVKJ/uT0DpEXU+mktY7DOVgBW4+xeUViM2F04Slj1CXFHj5CTpmN+VBBT3UAsUl7hFknWV8pODSJxunNKGzSkJr0ZaIBF46oaZ7lisLTDcjQlOIOM3GGIsGEg/XvB/TQKejisx5HmpMM9Ah2W5U/pvEJWaqfqslfOXe+UIQCs6wRYsRdWsLz9U1xeO4H7ayc/zDj28oqvBuO9rJ9kDNaHSSMs1tm95LAIDRZpNirmsOo+oUqAjiCksI3owmzajqBLSHQHG3E7ajW+okVYZwtv5vfnJ5nxTOKs/5zYYN3pq9w1wc7N6qpzql53NZFTT2imCLE8bXiVr8q2T8nl3SraGnk/LLqde+14HmYUZc+ThPKdMnS5lwODdYUA64LMfdT76rmcFOvXTtmqzD7Qvj9jSficTdP+gMdNPzTrp8+yKn++kp7ibf2ydg2wcrF7Q2E1MCtpbxLyvqMCxbrQD0uMuAQy99Z+Yt0dlDhfncUZOTXO2ll5LzOAxWGr/Hc+ROgCYGmG5WiOEXqTuAc0jhbCgqtHFTfvVyqafmtKGzZCKmfmciD3hgoFlu57M/ZmRt9mo4anMXdKgnyZz9bg6myEYbMB5A+7vrXPtketc5KBLFeHPDaDdecO8wTTAFhe5COda8fG5R4XnUqkcoeABl+8OWnHvQhqoCaq1SZRy+loCSP8bQ9g5c7utQzrraGuml5hIkZYh5VQIiWLEqRRlORvYYk1PGe79ZVKJVdoKUzHIfRXiwdL+OqT82cgW4T/XPG6aEZwPgxgxUY+6fkGetlHKR6pvukJQ1skydxv1Zcp3zvGgQ729QpmxFihAvFkqtmCawoyNZD+HjFrf81ezVDpOxnOyEWXbZrcNzInFDjbHuc62yN1GbjBWACwFGvu6PKZGblrMoquymNCSPnKHvB5i+cB6vMaQSwHWFIrdwWAtdstdgN5mY+vskdIKN0Tyt390EliqbUIBYnRAhSFWzxFi3raM/QVEiUPClOeUyvdwQph8eqr4lvOYLlYGLXDcmLnq7L+EOE8mCGmcpKCffByg2P6HHTCIpTJ1BVeVcF5Xda3C32T0EoGffLdUwuP5FC0c53Ubk+G6u/G5ZJwIQCMs8kFZO5suICFNwSw9LxtHJwLL5qZ+hjPImPHG6Ih13QQ9/4093wV6ZDO/9brJ4kR1nsnwFqUtRsodt8kiSjwueoYHg5KfUIsnwiUGIlixfFDSvd+7BwcRLzBaGreuZ1nsDgCq/z9nxsjdwMqd8/5qqxrbur5qEcFRs9CPFNb17ohlj9474ruXdUFt3oap0n1RfRgXGR5xe/Pp/nI9Gm49+cAsOTvz88CWOb6/uUZmo96gczmFhYN+hUkn+iWMMJOgLVoahDEyp3dGa/RN7JjKENYeZ8Qt1qu8xr1/7N3Luxp40wUjr2+dhcqGkKS4l0+aI0ToPz/n/dxMeCLJNszo7EMcXe7mzZPSGwhvTpzdKaebpVJTFnVMPjLR78XdfmqsbHzpUxoTr46mtz35R45t19MQe5PwHN8VI5z0FSF1BAi0e2iTCFo3/Cv6VVblSliI5olz/oZdqAM4XEOwcAsXY1GwgDqGkesIStYMSdgmeXzYxmOfPyQnGEBLzQdDil7gnIN0zQj3DYA1qR0JUCzuyxsVBPprjS7Z3oZSq5hSdJLpV9nOtfrVukNuBaFgIazB2szNnntDoA1r+Y0nP4zZwpyf8K73CPuF0eGAnTlq8NFR1hdpmYP/4VcoPRFebks3AMeEx77AOSnq4u9z7UQsMQXYJHWBg0NHzxiwRMXRWvbGpCvVJD/t7oZYQNgJRMCwppsZVmjyqaERcRS1/sUsJSpohcajg5eG+PU5CuhUbAWP4xXB3PASub/Sk8RniqEWxbAwhaMUBOkz7hkX4SR7hdZQ2O3ywSg47oQfqdcXr4CAnjn5Rqoz8SQfbWZBtdHb64QZp9FbB1gPZ6CZVK9Mjh8HKQCihLOPfrptYWrV9OMcKkHrEntAiBWMt68l2Srt3KDQg1h3eqEyuQGRWtnlfuqLGtdzfAvix/tr0Xlg3Q8Ng1Yk/m8GIQ1X+QCFleQO0HFCGU5dximw8qCCgAsQVUU6jQza7q0tZ1J3F4dWIiCWvepEigzwrAgNLA2OiNh/mE4nnWARVZwFcMALDFIvDoVmVE7W9TGrt2Wxid+JppmhH92uw4C1umCmd1/qTxYb1rAkpwnzBpoq5r23ngUMfv+/LOQcZXW1CshjWhYXDSsZGwesNKjglWwYeW4xRbk/kTgco+ZXxtFdJEAXUTFFYdmHW8ruwgLKoQwhaL7NwksNcGMIdTNME/ilc2C4hAUrIEAlqk+X55xQkeeoEV9d4HBEahTsJTNCLWANZFeMLP7u8qDpZewTnVCSa67MsdB264wk37eH1WOqOIEYUnBMi5fXQArR6pcvMoFLEYFC+1yR2yKXVPvNVoBi+psfscfVyVhtXbKB+TzHNOC4nGNQ+i2mtLNFIcO6/Nw7QKsB1OwhJkjEm7AMHRwB35806sM3EXvq0uEqmaE+11HAQsqYo1Xb9V+z2/aQPdq7qimQ2Gmay+YKcuGZ+IqRl/V+g5KLFjXcAbz5vYbYG0KVFXo+fyTUcFCSxqIegloIcXATgjjK+H0swbJp7MA82S4LVggwAq4XijiH/PV5xFxE6+hMuEXYDH/vOV5jWfsCMQBD1ykdXOREPH1VUuKRsFKIIAFErH26fIS4V5qm/PWCFjnOmGmC2zQK1maCmHeGEcV167IcGcyt99aEX7MJUnu85/nQ4RMgIU15UTMkzJmfQiAgEVTI+zKDXLhLEKtG94AACuGLRceE8kRrpJeMOK/zJyCfCDAQj00Azc/Ziz7w3MBY8PLDOImqGaOF3WvnHTXtUKIELHWpbY5t98bCesmYmWKFoSZyoqlEL7yD97L0VdChlVp8YNFoU1OOma6joBVyb+6HCL8yadgefwrKGqmwrCOAwUskmnRp1h8PNyDCQcAWB7bUg2tKtAomp4/6uUyQlhfgNUXYHmsJeYRuEyI20yI2MiuTPtu1nZ7hgEWMLFhWUx0v+pZ/3UgrJqRKpM3GlSENGTtoq+E7gxhrmAlXHy1P/d6Lga45xYsVgULWzRyeAFLYLZ6UL6iMWE5BLe2/fk6+TLKDVgQzwlMUxXdRwZ8U03xvusJr7Bl9i/AQpECuQWO+1iwgMb6ekbHLGJiUw7Bb9OX19/dASuhJ6zxx3up8XMrm3teJsyaYkczzbFCWaz7snJ2sA1oXRQspurgRcFa1CJGbx53ll7PFLbnmI84cILZkwcGLL+XGy0w1QD5li8awFruc61dbg9j/vogxKjHi15HiR4HsPx+Zsvey4PY0YP7VhskLAT1emrAUjYj/AADFrBMmGwLcHWxY7UBrNnsOVMoURWFqiFkNP/g96J6dlDISoOlkIYFW/RVpRWhpM/zUcA6edzZAAv7FoWborgn5J4Bi2A2DrA3agiAJbjmfThgYXWIOBj1e5ET1gMpWIiSnCBO+HCdXkZPxDpEWr0o/EaoH8k3dTPCNQKwgCLW5r1UJ2ypYB0Ja/as6j34vbGZc+Xzpj+lwpVoKhIuGM3tBcKS6VcnwNoefnEBVtTXXO3yvbfzdzgYsCjmxRg/84foxxLZv5KDC3ed12p40QJ7Eq9vvsL/BNYpWA4bYGFue3APfAWchWPcd6uVsFwTP4umGeFKE+VeAayUirDGnwW2auyXUwSs2SxT61RlfStTFBGzYmMciXzV6MQi6+ucJElrBWv+b7Xb84mvzgqWywRYYR9vNvD6hlkYIjBgCSsAq0uvLcV0NADAAs+V/mAAK+qdr0aOawVgieEBlsv7dtAq8sNy8UXmppLQBLcdmxEqAOtT1yunylMpUZkw751zyx1tD1iz2Xd9C+hMKV/d/iaPvrrqV6JKVULOWZTJ7Ul7Qt3v9tVDhPMLYB09WEx8hXa5+6xk5w4WsFzszN9pB+hbsrR3RxEw9oihAJYr+geskR/bAFgDVLA83reDlXwFI6xYGFtoAhM/yFHBgnR7rtNVSiNi7S+xo+2DGq6ANZO3GszapF4Vo6/SdopV9c8mhHjV8vbtDoBVcl+dMkavCtY/XICFdLnD4SPiWERpAMvpB7DgZjnVuUf2U4QhH2B1NhDDUc7rBUZor8AGwBqggoV6C8V3wlcwLQ458D0DT18XcXhUsJCAlRIbscZ57OhbdwmrgFi60NFyO8Lb738W7fIYpBnuRNXBbhLgbpdU6CoXsObHkAY2Cxbe5Q6dNCC7Dv+RAMtBzE6hge03zzwM/xZdtlfCVXqEFYBFa8OCrp3R4AAL45/z74avQMMHKWEFBqowOsDXNCNc6gArkZQIycqEp9hRkIR1NrtnMqt71kBepcY4qaQsKGp/bk6+Slry6RGwSqcIcwfWWcHasvEV2nHr8YEdbsM7NMDyETTgPSBgeda+EmlNnsyGFfcPWANUsDBW7eh++GoEaW9hKmw0NPJD/KUuEbYHrFQtZEF1nG2hStgJsHIRq6l7Ti2UtNYYRyFilf4oJTa3X9lq0hqw0kqCe4GvGAUsdNkIup0XjK81SMAKEL4dz5LFPbIYsNx+AMuzBLBIi4QPo2ChWr6QiYY22PgAgO4aWmkCI28BjYL1rgOssbRESKdh5Wb3lucIZ7M6YqkTG2TwdYm+Sq8QVTZipT80V5rQuq8unNUOsCoRWGfAmp8OEfIBFnLUQzehLvsMFfWag+ViFp/OgYKuJeWpgJE/wmEAVmgLYFHGij8MYGGeniCbsh0LRg9kVsRJWD71w9ercPH09eUVB1hnsEqJjVjjm9n9v86E9azsN5jVQCu7NcaRU1RaFa9E5ZMnxPJV0kXB2lRDsM58xZszim7DCTUWeMbnwjsCrIBq7eROfvYZ+eMLsPqzBD0MYGEQgUoyjH07xg+nPK2b1VxDP8D0ZapSsPa7toCl5SwgYe2P7QlbprnPalemKgXKfFjLOk8JebSoqBcKqaKvWtdXk3UdsK6dCC98dQYsvlOET8gAOMG2ziDjEuCAFfTCsSHiXrnECyHfGs6nYIF3FuI+SoSUbZ8fBrAwEjDV7Q4sGT6A9wEODYnPRjd1kH6ZKkuESVvAOoKVSIkb59yS3bvXCItWLJn3qlQkzKuDqf68oOpMIaF8ddOvzv/KyfRjmk0KgPUhM7j3AFjY96vLNiXjttxhr4DlwudjgOMitkQ+uUvAwtXW7AGskfMFWB0BC1UhjPu91zbYsEIT4zUwNPh+TaeqXjmpBLA261StYClrhXBdZ9XO5i4BrFN/Qr16VagOljhK6IzuZZe7OflKIf2lz9lzIWd090OmX/UAWNhFF7af99mnYzhgUSwDcAUL0mMiNmO4uysP1lM/gOXaA1h0rushA1aXp2lBhdAiQAfsPHHlEpfyazbioaYZ4aYGWMn7AUp+rxUeLBMa1ikUCwZYF8TKNOb252VBvdIa2WXXJqGWryZJ0137k2XLYolwUQ5xv/AVO2Bh37Eh24wYPhRgRYhJ3ZBGf1+AJXoBLFtysEhdWA8CWBb0yYmdkUVXZ0LH7eYjyofS+Dy+qZsR1gFre0SULHtP1d2eqTWs8f7jHUxYF7e77FBhVjg7KKMrISkQFuzti9XalHx1LRLKPjnLsrSoYC3mMgHrfIiQM6chZl9EoS/qPhJgXbaHkCnJscViHdoMWE4/gOUPeYG8Q8DqcA8wAhZRhTCwia9E5yIhLmzUIZzSmjcX39TNCNdVwEqej3x1YJPsTwmiTgas/Dfyw4Sn84SvQMC6ObEkJcL62UGhKRKWS4WL1YYcr5IWt2x9wNvSKcKqflUqETICFlK2hW2DQduOuCfACnvB2ABqwNIBVsyrn7g8AwMGC+BxH/cCI3YojPcHWO3f3aj4KZpbHY7suiLe0e/RbViap4u/1QpWDbA+TgLWCbGmHzoBKyUmrMkWCljVUKysWh1sao0jtWCtVh8TYr5KJJRVLZZux+NllpUOEe7qCVi3lIb/xYyAhdwUCaa6JDbv0xsYYPnwioBvx/IOybe4f8CyyUTTs/FaDAuwUBMlSepYLOziK9E50B1nQYzIbkkL3tU0I/ysBmFtc746/frs4sHCEtZ48w4FrFlWicDKamcHu5qvViva6mCFspL8n/Lnfj4fi4PTbFrOwSpkjP6slQgZ+Qq9K3KZZuSgL8DyegEsBz6nB5Z4OFyrAcvvB7BscrlTRQeYOsjFAVgRCxnT2N38kW1XwDVUVNI87Km0AUO1gvVW6/a8PKNVdnZiLRUKlqovIY6wktUrELAKItaVsZ7nOqHqmuQuKhatNJevEpOHB+UK1jY73PftumRxP/DVfi7Try4KFidgYbfUHtOMHD4WYI3gyoBu1uOLgQbpE3D8cAcCWE8W2ZQFkc0dqouGFgBW21uA2prQZI55I/sul/Vn8IiGXpup6S9llHsdsN6P9qtVMtlmude9asM6/59ay0LhSPoOBaya2f0sX6USC5a6++Dlb8jM7eNJKfwq0QPp9HjHj9e6eABgl1QOEPanYGFd7pB11Cd5c903YMWHyUjQPxHX56kzwNYURsAC76XvyKfcs/XaBgVLcDw2ksgxu04QQqU5lAoX0Dz5VuZ8dTPCt1q357cDV30m42S8eT2JQa8blQ/LRJVwP17/AhNWScT6LYlt11qvRKE6SGRul8lXyQ21kiqPvh4VrCNgJSUFK5EJWBcF6x9OwMJmuUNKd5A1HrkWuGDAcvsBLBc8oTahTex6YURYbhB+EIaeF4ZR4OffsxPBHhccsOKhAJZVRmWac4RDVrBavr1RT43GbBZZyFfdt5+oG+nQzBetxt0BsKZyD9avpUzBmhwB6yJiPa/L4Qw3I5bKkoXUfJZAvjoTVk5ZU1UsQ70dTvWzVuuJEfmqWe/bnvnq+2uJOXdpPaHhViLkBSzkltpnwQ30JrBfwALEWnq+2VUzDmkYyw/LbOO6nvt/9s6FS01ki8INw0Nyb6QYzVI73MmIlvho+///vMupAuSp1BtRZ1an01mJAkXVxz679gk0gqhuwEKCI2FUhR7P6AwyBsAa9iEcIdlXilBoo59jfLFO/2I6nCMDOgd+5F4Fqw1Y1wyp4gyv4H8iYqVVq3ulWY4iDQtCsdachFUpEv77eO9gn7ldnXzVkTNaI6xoQSWsbd3jjhstcgwCluAjNdKyxgjbRZ4OsCz1rOELFx2Q5Ugdi/yApY0KLGOHqOBlvQHLUw43cgQsGaVl5M58x84egRzfkyVhs04AIkJcq1zCdeEHTui/lr+WfYD11coZXcbzaE5FrG2VsAoJqwzDwmoIax5fOCWsskSY3sqDjd7NuL8xDvwqLZthHt3Rr+JbmZBaz3JL/ZY4sMJLHbDOHTsITXTKkfBIbWtButmrAZaORTMQnWVdyYEi/C2YtVVcLJM0IP1lvzxgDZCXBHeGWMEIZmmgE0eFhM0sYSF5cxtXhXCoarvr6/a83jQBK8kVLEQga56AKlSLa2hIWFgFYfUkNgyqERLC+vU4mQFVMkdvmwdlmdvn0V39ClUVrGSXQS2mEaMUaOuAdezYQWgIsEQfqR0dE7LwPhx+wAqeDLBYyj5ihIXc0YxF63kAi230W5abvTzPdS1LAZo5kwAskVH8eGZxBItzvulDJOPI75jHbBmymK1ptHSMV557eDDu/lj27CLctwDrnOEJUa/yL+clrPmHaj5DzYWlYCshEbFOnIBFGWvTKVKhe7QFye2yshnmtW2D8V0n1nlFJDdSFozoJsIWYHXoVyaC3MUfqWdaJgvRR+3gZQDLZ+NO04/mcgDLfR7AGqTfWlDMaZvZyP4ET+IGhdkkAEtoBnMfXi8xwBqDgIX6Np3Y4mPJ03konvB1HzzoepsRrtdNwIozQsExInhFvuJdtv4vzk0L1gPIEkaU747EhsEKVnjt3zyI+lBLnrn9YfhVZTshXtLgsV0Z1BA2AetPy4FlDrA8vTcY1yZC9PHcgKXPocr4eUUsEc7HCwKWsGr3wOaboZXz6GkisH1JaRvuJABLjBLuDuNAWOQZgYDl2momAJ4JR+hY6rMxD6oNfz6CKPd1p4K1awLWfB+mRwCrqJCxIiCs3U3CKtOw6LeqNCwonXG73K9t3QrfVa/kNR5slgdb0tX5dEluv9vnqfkLuoeTKFgND1ZSKxCaVbB8zXN0YGRZexXA8jQhjax4alOA5Rs76v53zthq8GgLHBlClvUGrLtX1BEuy0q5S8QELC9QWQFlVkGF1htfcNw5DIDVF+W+agHWJYQcrNzlDr/GhLBO/UlYijSs+XczsYFJwXrUdRDVDO/yzO3VdIa4LVkddvD5VsUPL2XnxwKwoM32vNHr+XdXhfBTeytCCf5JHe8nvp+cG7A+nguwHG2LkzMiwPKeCLC6TzkLXEm00ARvwOonBAkFNDnbCFyVACTa3YG1BiqU1OBWn5nZFTCGu7dXwdqsvtvdntMNRasIrO4gY+FlGC5wpSEhwo+7E0qxMzUSG4ZsI0w7PFjoQWjDH3nm9n57O3ltSRuiNMw1rPMipE2JwpCcrytRsHaNVoT1dIa6gqUZsALNU4hvZC5+EcBiXv+5SwTo4w1YnEfZXC+R53MGs7pjWP+fHbB6PkjGr+K3rRSTm632E4gSlq9ryqkPWF/tcP+rX8H6bgZhxSkkjRYKVkyMWMei8fORIdddCmHVze5MClarx3OFrHAdr6SZ29u9nesq1ibMFasL/ZMNwOCVMFZcKljZ+a/mjH51lAfNtCIU9oiyKxmehvd4WcBiXjAdfUyjELBm2gBLymHPKuPBYpeuqoeB9N68UwQs1LWT0JHS00jOPhBPMeEJ5qjqTGqoRGG5In95CGCtfnVHua/iJmDNN2GaUIf7jbIueVXrujjVZSwcKepK2NmecLAHazNoByGSbW6v2dvjNmZd83JgmF7I7wFcL3B2sx+Sv76j2wiTmoL12UpoMNSKUPT+5VjceKbD4MkBS1f4ETtocAOWr2Iojh+w5DjPAt9zLdf1HhvaH14/S/OAmaCClZ2GoHF5JO3UlHKIIkDiKb0Zcm4JNC445Zs5ij/oX8tlH2DhFmCdwnAXxzcPFiGsVRgeQYFJw/25lK3ueNwlElalPeFgBWvz970GhNWNhDLN7R36Ve13heEKUhlyQStdRnF8DAsP1oIqWOuqgvX92aVf5YD1X92AJehyZ32m55guJHhxefnKeibA4lj9ucsP9pgAi30hczSNduUvsQLPG7DytXdWjmd7JqshOpIzWPhLamioguZqxUhHxoj1FH/OoL9XzrkFWFGGKYfShZV/TSgTQAkLRKzbXkJ8pymhrMJbdBlKWIUHa1+nKtxrv5JZHbzFX3XZ0w/KGgAAIABJREFUr2KiVxUSFlGwztm3lziKz/BTotal+asCfV9xh//KUKecD2GXOyOCBGZWNesFAIunIMENWMEbsCZAWN4bsCiKQECGN/O8DK4QMng/Sp08BrehEGsRaOm8YPlJtZVfjl/LZQ9gHVuABf2e93E1Cgu2Eu7CBdS4iEd7U3Vi3ZOxpJFLYXZnUbDQ40aEyUGiub0dz9CoEO6BrJbrRZg72uJtdjIxAawwXJJgipQqWOG2UiGMPrsJywxgCbrcGRViR+Cp5Q1Yd/Urnvnc1jWpqgQs9MqAJfKAJCWM39N20dQBVg5Zcl+O6cs7/AyLVTF07HNqHJRqAevjY9XXK2eXtAEryVb4w60+SEnrROLcN3loU1LrTqgw0b1hdh/qwdp3VQZxU9GSWh3M+apfxDqCdrXFRLci9dZomZFgxlcRKFir3ON+WYKCtYhvJULc6pFjUsESXf5t5TeX8wasAUs/1/MyL2C5YwIsjgEyIcAS2ZZlELB+jg2wzBsiJTuWXF0zFOuRCglmZEbmaEHBqif+6O32fGoFYc3nK2INKh3uRMfCaXilClYIMsu11S9HaZGwTHYfoGClFZN7l8EdKakOkvrg3QR3cGAt4Zvs9C4ocRGLO1Ww9vAvLDKy2pIorPNNwcKfnTkNRnJGP0Rd7oxPop5yhHtJwLI4IZQTsJD35IBlTwiwBAjDMjd9oIkDlqRO6PwWd6Y+9UKiEvMoEkpqcLQIWBlg9XV7vnQAVpKt/FsQsKo7CTdQI4TVf0Ega3msZLlj9UXCItn9oQerW8FqmbD+yK0OVuuDcSVnNI6Ouz0uIxo2hXBVENcx4yviwdrQCuF2fmwqWOfulIbfhgBL0OU+Uz0boo83YD2Y4Wa8s7mj5aK/AUutDYt/5LwVLEUvZJuenGf6TiLrsYpsjARhTr0Di3Z77gzC2m07AGu+y1jgEBetcugvlzBMokuGVsmGOIXSU8OIhVUTFhWxBnmw9l3NcZAyc3tnvGgu7C3SlBZUoengNjtLOPuU5NxBpjtYsEDKCi+0QniAfoTp4lDt9dwVMmpOwRJ0uXuqby33DVj3z48faL/2SgAr0DXBj025M6dBB8befNoKlrSj4z041iZfQk/ZM30DljxOcZwU5uvR2ytnvekCLGCAJS5tWAgQ6wD6ywVCmjCJI09hW+G9PYSyi4RQQ9vcByzqwUorChbu7u4s2X1VaY8TNzYPwhk7kO+A/mDz4CEkdjYArRQiXePsJ2l4onsIMyC9pHs8fwBYpjrlfAi73C3VC5uMxdydKmC5M6FHZf8NWCNQ7sxJWLY5ups0YM2MX1nGTyAqKml8pnc5/jb7js7/9ClY63UXYEEWVrqKwHtVNn3G2Y9wQjfAJQuSNbCpslUfZ8n1Oe3uElaapzQAYPU2d87+4M9xLtt+FfV0yAHPOqmmnot0hi0IV9SCFa6Ar+ITuN6BrEiTHHyqd8r589nPV/8amJ8F1/9A8YLuPz1gqVkCLFcoBVwIsPw3YE3CheUYA6xJK1jShE5uYcnSGf/JLoQKXDP009IxX0Ezwu5eObuv9jZCGtWQbuI4T8KKf8bQQic8RIuUhJCf9yRPYI8jvRLWPLkvYdU9WKiDraj/SgVfxfVdg/SXc1oA1jFPZ8DL3OMOFqwdASyIa4hIbXDb+re/vpLG/sEcsD5NAZZgljvL8jbTsnxOHbAsb+bbgckJ/K1gjerFvQ5LoJwZMvbWYwUsKzB+bMwDVUhU8rUNWG0XpDfKfd/u9pxLRRlhXeMiCQv+g1TMaJ/mXV5O4HVP9w87EsqXsAZ7sBrbCFHJWAlWpl81o9xPJWAd4HMl2U8g5oL0fQZCJYC1DiGl4VgPGC0B63+f7U2EJhUswVYJvuIJI3gDVm2ymNnmL/24FKxA21uNFLC4Czy+udHtTBawLNv4HcHcv0ZWi8Ch72ZpvSIcty1TM0JqKlplhLXHZdpoHC8gzP2ah5ATEYu4tm+h7sqjGuC1/eeRByu9s4uQvg7y+aqvSLitABZsEIiOJGe0yB0lMVgRnNn5/EQrhC3A6nZgmQMsW9/o5bivpEQuTQawXEfqpZ+NCTTegKVdhJ6ZG92TVbCQvFuU+9HX0zeEyCFrm3g04Sb0ymFoRpgb3YGwVrjsSpgBVoZTW8JU1NwO/u3w9EjAkithfSeDFaxafxxc+T456tKvSG+hHLAg+yI8UL4iOaOwq3ADMVhQPMyY70r2EHYBVhdfmcoZFTQ4Mt3MhhrlTAawLNnKEe88Ny4F6+PlAct/OsCarAcLSbw3PI2M52tlygBpvCRcSwhLM8JCw4Iq4SIhFvcITO4pASya5URe0Nllcc5xC+nxuR/+EcnBohYsrEK/ipuMRdvjVAArI6tr3o7wQncVUgVrG4aQe7VOT/MuwPr83QhoMAxYglMUA4Q4ptZybxKA5UrfYjoNBesNWCZzvd4lQlVDhJtCLI1DiHOS9jReEq6S7aq3GeGhD7DmpIiVbnIRC7xDVwCsXUFSmBDWvuhHqCVt9Ps4dBch1atwV4Q7VqNfdb0IYEHrRtgqmJb/wTkMCwVrSVOwrknX8X59f45MwRLVa4cv+76Oh6PJAtZsNFcejQmwENL3VmMFLM6dwFKaEb5LhNIFd4HnUf5hqrdruK3vkvAN8h8szQhLeoBEgTTdnjO+gvzxdAtJo4sKSZ2Ir6iW1aCYsM7/MPcixNX9hBDSIO/zRNHdAiEFrAU9VSVdwZczaUBIWhEm0PK59x2+4kLBulndDQOWr+sBwVOKbxMHLBVluUkoWJa+t/LHCliezrXnrWCpdYwKqzy2zrmAz4Sl8bI5nIDF0ozwloeVCy6Xy4pUuMiuuONNwsoAItyXaKXDhXUe6sHqzcH6O4kk61etCmFc/gwAaxf9n71zUVIU2aKo0ggycbuEkQrLCmKqURAE7f//vGs+QECQJE8+EKFnJrQ6ppRX5mKfnfsQBSupaFg5zhvd+F6AYhuu3YrdxXu2iFALYBmqZv7hN5UgxJkAYEmZ26egYCkErPEqWGtlh25WsJQ9eiyVUh4oqGE40ilLauC8xrsVrPwZYH1kPhVdMBaE3okaiIotKyxGxIUlX8JKB60idOsFQvJWmILlda0fdGsK1rWiYJHvh4qt2JO12YX+UwHrg/Z6rnfJKQnrl5bh2VUzpvB4CqwZsCRqJ6NSsIzRA9Z4FSzO2dHVd3VP1YO1MnTfD5x3J8h3znFjLMeNvP/4/ucXezPCCkTsCRHQxW83oNrkXiVfNLovK/S6Gz9rULA6mhAKVLCC1upg8ODBCilgIcXqHMchNl951JOF5awnfPUAWFW+0gRYsDHKkjli2DNg/ZbXBG8SgMXzwD41wOI9dvrsX9ONaRC1Z9waj6n8QPKMT6qSGjiBtzPKvb0ZYXXLS++Qj9a+IcA6+Xl8X0no98Q0CCWslGkV4WcjmUEGYDX0q0fcwg2dS8BCwe2kByF68VV6sm6vn5n6L1l1+WDZJ0erggW71pcyRwxzAoAFXzGzknTi7RmwpgFYvJKcow1whClY1u+xbZajdcdcDbMAj4qsJqmBd+js7vb81QdYH6lPWSAnvfVCJMzsUipilaasp11zAh0KlvvQJAcVCAUBVitPPWy7pIi+z1FwK36FqCokwaOo9uo/+zqXy6kto6FQsBwtw7MJu4YdiXewMwHAAj9jL2VdFrweLGsGrJFtnLOV8fqANcJehGKy3HlraJaOWYBjhFJDxjY3YO3aS4RRRzPCGkvkW1zfiokkcwOsU7LZHgqEKMNGY1e+hNW7ijApFKzWCKzbHzEerBb9KmiBLb9UsEKSe192fY4LWfBpaMRf3IrwsUKoFbCALndD3lAohnBeXcGSNq+/rYLlTg2wltoAa6kZsManYIkpEyq2YAElJVP5rMN4Jnhn1F9dCta+oxlhw2x03vsRNrNfCTCgPjnXmLqMwrJEeEDKltSGOUM9WPEDXglRsHrd7RXAwgpWcMUxF0XPnBRLWsjl/jyUi7YibC4h1NgpB/KwNGza0eZxf3HAsqSd9/WYvhHngOvOgKVVR+JMcp82YAl4BOF9+OE/shAtcK3486SPVMObEXbEPYWEp05oWaGPaoM+cmwXULVLEl/uQkI2wPqsopVbYywhHqyqchXcWavOXOhAbG+ARQS+qFCwzhviZsO64FfPd0GA1WJx1wxYsEFqLW8CtWfA4n8IkzeIj6pEaM2AxX2NCcAc3QrWCEuEQoxY3KMG9wevFYOMqeA0mPyANbgZYXtceU5jByJEWEmeXROcS062FP3w7Ml0YbEFjR5b2UqYgtXR2blJV3hNQJLgWmp8vH2tvKgVFg2ze9tOXy61IPdSwNKYM7qAutwtefeTOQOWzPCltwWs5dQAi+8OFlHKmk3uHZVrYPmV8xIFjFkQ4Fkq3MUBB4P/4fRXZzPCXTZIwTpgwQq7sBK84bhMam9HCw6pk1uWhNWrYLV6sCha0X89MfXBvjY5HlkCgJcOet6x4CoUiZ+xHhMEWLVVhDUFSxdgwZ4llvLmAEcvYLkjmAKWztim5RmwpgJYInZo9mBJsbpzd+a01H8k70gtP2wUMFD5N8Ia2oywDbDSIpYhSspo8t19zRzxF0l0YTGVCJNaifCnQCtBCtaDbtWgrTjcUn8azmGlNBVRBetUlAqZDglqRdiIaCAallbAcmCXMdvNpc/jvli/MGDJnNRnBWsqgGVr26FZwZLiMzM1jBcQRYlnX6UnNUAU2s/OXjmHQYCFFr/FhYRF/0S0JpaSt6FMCStjzsHqUrB+gAqW1xUqSt/FKPuK6nhYwYprCtYNtMpujv0fdgm+v1ss7lpjsMBirSHrM0RN5C+sYC0XM2DNgCXrTK61DR3vAFgQwlqrJB0Bh9JWupMKKiDHJ71yhgCWV5iKqAtrg5NHiWYVkre+zKgGdgWrbr26q1hABasv+iojMt4mLT1YXqFgoeUBKG/0zH5ASCvCB4u7bsBSILI4Gie0F1aw7BFOy6PKwXJnwOIXPAQA1qxgSdlLtZ2ewSU7PqeoIVnCggQ0/9NZIswvLDkNlehMKlGVEla5btDHjaGTzUEnYGHIOv5Ulw3+VAuEQAWrxdoeVIEr8yl2poWCRXnTxwpWfvt6x1IAYwCsuFXBoiVCQ9f4DKuGr2VNAaJG4ddVsJbOGE/7akSMwAUJM2AJkyJnBUvKFcNdUwAMGIZylpF88tYwwGoPwjqG/QpW2zJC0mdvm/hhRpfNoQph4p+qsQ3iCYttFWHUxlciFKyaftWiY2V+QoW9rPBg7cjRQPC5RzJW6XBnACzUKeehzbPunNEF1OXONExr9Li/sIK1XowRsKz3BCx3aoAlQoqcFSwZ+8ntigVZCgCCEt/nSg4bNUCA1RHlftz3K1g1E1Z4JMvisISVVkIJQmLA8isIId7nzpaDdaWVwZ82xAIoWH3tceIjlfWo8yot3Vhp0dq5iGhg481L2jS5/9EfgwV1uS8lDYTC/EfcgOXongKMUQLWrGCNbTO0kfKsYMlwunM/8YJuTUimmKP8E+XOH50KFuqVwxf8hCSsa6XLs59g4gqL7ntSJKx+wEowYHXJVyAFq4ZWAf2PG9RiWEl8BV0JcEgKvS8vlgRc7/8zA19dTueWPoTaAQt4oTtyBmLr3QHLXS3GCFjumwLW9BSslbaR410A67drKLwzgWMmxHRuKL3p5R8L1Iywvdvzjhuw6hLWiURixRm2Hcnq+cy2ijAs1Kuffx//4Qas3tirDOfbh8jmTqzt51orQhxpEQ/Czcvh3Gpy1w1YsGGK4eZyFE2d01KwzFEC1qxgTcWDJeBEzgpWn45iqNwrS8d4ALg3ZIaN2jDA+vRbo9wjhmaEH0GnhLWvVQgxTRyLbE0ZEhZrifBBt7pLWbyA1TC2NwuFMeGpY4wLg9vCsEblvJCUCO98FbApWIfvFoe7fsCyZV/JOj3umgGL/7nQdUZ51mcFawasGbDYCYvjLuatKMD6PgD0JN4Plhk2asAAq6MZ4dcu5gasmoS1JeEEOM+9WjkUS1hsMQ1hq3RFRS1OD1a796r2A7QAICbFUpJuH5atCAlgEb4KmOW8v5fzk5SG/+kboGFuw7UcynCmAVj8U4C1GCVgva2CZY4WsOwZsMa7cRxlbrs56BkAYsW11F4/LMwHuq46mxFGu+zCXR2L0JLB2CvsRqhC6MVxGa6JqmbhPs8EFgn7VxEmuETYjlcABesRqR6p80zrgX5C0+2vRWpYEKJvFsUDYfNyyb+bDqy7B0sjYC1AiSSWlHFQXMbmiypY0hWTWcGaSomQ8xpbzoClYht8ifI/75o6TiZkTJAmYQFHqafNCLkB63SDqhNRq66kQoh6Eu7vNvd0e+OdbS5OwmIrEYb/dhUIeRWsh3yGoLaykuh4cV4Ke1GZZHEqFKyK9z9gZE0EWI0K4Z9RKFgwl/tSyq1rvT1gOeMELDkKlj0DlnLMmAFLzTb0wjE1AZYldQ5oV82Wo8HaBwWrPWl0d+IHLEQQtCnMFhm8CWwdiIAT046FyHqUiZKw2HKwwi75ilfB6oidoHwVYStaXM3CimgqKwWsINxEaUP5YgGsv/l3W4VQP2DBuhb0koCh/AaZAGCtFuMELPflAUv30jfhG6epzJ0BS8XmDl1KyC/rGNpmAT0zj7RL7Je/62hGyARYgdftwjqRCiFZQxijIuGWBpmjJHOSCpWcBUlYbEnudQ9WPcidB7C8pwFYYRnXjjsy4kD7a1ErTKIDIq/z4eEXMALWY6Nn3b2e4Upt722t1ePOD1iGVsBaj/WkzwrWyDZexWMGLEWENdDovtYEWLbMOaBLwpLVLwc4eHeXCM+XD34J60p7PV8RSoWYMLC3u9FOJ9nsYyGExaNgVTCLLwerQVeNCmF2273jHTm3WLQjh2KL2BLnrgYtLXZYej1XFKzvstOz7laEC6jL3ZYxYjhvDliuOQMWw1GaFSwAZcyAdZdlLWuNN2sloWq1VrNTwBHL1MEzkiQsaPn7s7NEmEMAK97h5sUxxooTkq9ub25ctY3JsroCsJKNfxJRJGTxYCVVD1b5qmStwR6snv7OKJxhT9ESmc6SIq+iClgt8Q4sMVhxXvO4/6nljOoELNhqjrWEGU2cx/1VAcuZAWtcJcKxKlj8T0fODFi3kcZam/UD4Zi2JVhYMdUMxrAT6qjaQQUSFnSQOnY2IwQBFjIg+aRCiCzu0Q63JtzRxXNlsjmGrFCAhMWqYP3UmAqiYAUtvqugUSHcFLuWbcmu0oY4GLC2/I2DLllTwfoeiYIFG6gsCSOG9e6AJd2CNQkP1qxgQXzCM2Ct1l03uSmUsVZDDrWr64QC9thWPkA+Hxeg80dnM8IdQ7fnbhMWUnBOnrdPSBfjG1H4qRfnuOMzWVroH+LTlWDHLgVLWNl//zF5sCreq6qChV94fP6roNXgTigyLHsRJhu0dJACFvJgkb8LHn/NBxtgPTiwCguWXsACXeV9apOh9IadCGBJt2DNCtYkAMsArAB+d8Cynt/htsBeeQOuU4CQBDyaKyX7J9SeImv+QM0Iv9oI68gEWM/7xKDoK+zFwqB1Rj1jcGEsKuzt6Y4UCs9QCespYG3rMQ11G1b5YpiC1cCiOE/LvU5xqije57wQszZJiGIq6I4ekYAVe+0ZWv2c+feS1gHrT61TjqNzmIZ1hXLE/3KBs9lrApb8gtQkVhHayqjAHSNgOWv39wxY0lyOpjDEGjCYcBMHeFkooG+qpeccSrvCsIL11YJYxz0csNKEQgYuFSb7w46kPu2LrsdejDvpFF53iQoW1rDC0oH18++DgjUIsJralX9vA3SgjYIi2g8nxlyZxzHS7c74B3ss6HWsP2RRsE55S6dn/Z1ygOX3XoejXo/7iwKWIf2cj0rBUin0vayC5RimTTYTbfb6ticzYEldRWKKsryz3zX8D7tLTTchzNIhRcKCDp+4GWEbYTECVvCUsPIk2WY0252QFE4u2FccSAdsT0r8GFQkZFawfprq1d2R5XHUBykine59FpHdKvKqMh1aShnFCLCoBc3Lt2HcpKuA3eT+93IoPVh3AevPKAALFjVqi/7d7lLk3P2SgCVf0ByVgqVS6HtBwHIQTS3vUoWYWeitAcuWTx18+2xrAyxbBT8KnnskXdq4GeFXC2Edv5gA67mE5Z1oQ5zMLxcOnnDJzK/a4TdU6ApkKlibioJFnVg/VSlrgIL1ID3ld8DKC2/7ruCpDOXa3wBrX4SDeVnctG0FwxSsc96d0qAZsEA6bY+M4Cp9IJoGYC3ln3Le4VRKj0SVCtYr9SJ0DHNtrSSFBb0zYLETgSFGxFrJvhXggwbAKLLUMBA9ewpcgAHLp4DVIKzoeLnAAauRs/l/9s5GS1Fci8IlrSL3LhUGqtG5rB4RAYGx3v/xLgnhJyEqkIREDd0zXd1VS0UDfOyzzz5Aq7pVwhYRaFCJPQIVLDSLkO6/GufB6ncPhi1gHWsrO9jhM0Iur+Sr2EvB1GvnYTppMGwUYdZVsE7qBLkzLvInBXjJHvfpgLWURw72St2PXCtYM6GVuVkvOOpVGrAmLhyLj0toKXqfmHV/Qw5gCUhqWLADlv/tHyiEFQ0ErMAZtiGhag/c3cCS1f1e7kHPdxLG4hUsegfhmBysoB/LcKuLfxCwKm+7W8/D8YHFLI6hD+1Kn6ozbhThz79YhbDJcVcCsAxxy3nKhdxQAbBkKlhrdQHr5RUs5QELBDHBFykMrXgdZa8LWNYcq3PSRX96xYz11ofBiWvL+RSF3QTCac8HCmFd/GGAtXOGbiHKvaq6CbEqWXxL4A/4wXTA+jOsixBTsLpGrMEKFoWRLgCqksZtBtU4IMtdqwpheisBywd73wsXbb4cM4qQBKyTQgrWF9O53OJ8duKasmm+oII1R6rlO3iw7LcrERrmerGdZ7M/GLAWsxwr+Nttqg5YLBcBljP2kvvSXnMALK9WsDDCOvg//+54SliOk3jQz34B6s7+SiWwQgRgYbMIewpW/behChYtVtQFLZJuUXvbz/W8xRwWQPfpsXJgEVhJ3YZYsH76FcJ2FOEvyYDF5DQ0OD8y12v4RgOWVrBeQ8FabhYCK4JawZp+hlly+FRWQt9THqfNhRzAslQELL8xYWGEdRkKWMMlLAc20gHsKGnjTO059GdRsNp5OZ3c0YEKFi1XNIap9CnytldWdiBcQZ4Cie5uGME9v/QGD/YebQhgBQUlxV2JSTmsKrjJ+baIa8qmXAXLVPZq/g6A9U4K1nI26Uo2YNnyAWs919Ey/v225QHWStJa4t5HyH4BASXCFrBaxDoIACzIUKDJLmtCzrvbufxmIEjBQrMI/8FHPXckrKEKFs09lVWAdaxT2q9VBlia1oGjaBBhTjNfBRhq7QYCFqZgnZSZlMMq0244u7u46jcvqWBpwPosBcvYzE1Xn61grb8kENagJ2WQc1bS3k7GtbRRD7C+PQ8DrENHwfrhXCN0nBiwiAfknYhSQgSaj3AFqxPOgEVhJc7wnQ1w2elSAVZRA1YOAavK/HKiFBsI9HhC9KCkinrWM6ZgnVRRsFhk2odthLI97q+pYBnKApatYxr4392stjI2rWDNSgH2IGvp9BOx/bKAtVQPsHwPV7BqwjoMBqxRElZepRdcaHYkUFW7zuDBIobl1P/ijHJgdf5MOhVC2DwYIznOr+Ma9iVQxpRIhg5q2dXXgxSsatYzBKxTR8NSA7BY6u8PLaNTPO5fHw9YlrKApRUs3rc25mK7/SjAekEPFp9C1hBlnqGfey3rKGT9SC31AOs/pIKFEGsEYI2RsCB43ECpsKCOLjyLVLBuGFsRk5/PzsQWQtAf2MxxdtIOYF2QpFXylR/j8lVAN2PtRgAWacFSBbCYemUtnqclzn1qGrA0YKmrYFkbWXj10YA1JSjJYv2kBgVVLT8QsL44N3bYPADL7wEW3KJgKGCNkrCqQYQxknfwzU3TbDpg/RnkwSJ+d2jLGcOSQXeHUgRTMWoedFDz4K1WsNDAIGpNcGwPYTuKsGkiPHVLhJZswDIFnaple9w1YGnAUlfBMuXh1UcD1iSRfDnHOy4TsExZgMW7RG5yACzv22cELFLCCoJd+Su4OwE6LbrRnO3mp2koALAwD9Y/fRWrIq1BHiwnjskK4bUqECZtmdOr7fxhHe2OhhLiiaLoP3ssX/00s57xFCxVAGspZkEb0i9lGrA0YCmqYC1l4hWPPfqQoFEuKv/AC79MwFrKWku8o0bZb9H/e0/BOgQDk0YJwgqeVQ8vwOF+TfcR7TtHQQpWSs4iJEFrkIIVFF6ByU55DGuBCKrQ4EG/Biz4s1e3+iJ+pGFVRcKBLZRg1jM+JuekzCjCL8aBBRuul3FDA5YGrPdXsIzVdqsBS9KF2Zj9HDnQ+qUBSxHAahSsiFSwBgPW7kEXHM2Ftb+C5rqeC+tWgopIBet2F68GKliZ50X4ruRV4BWsBsZIz4pQauq+0q3ia9yzWwXUZsLdQAUrK2gpWKoAFotM+6CzbMKhw3nQsQYsDVgqKlgbWzJf2Z8MWMtZl+mI49qUiBWGrLW0URCwfHqJ8BCPAKzdo5ABEiQ8UDzLOoNjusN0ghk8WJMVrIPnet1qpwt2IWwiGlA6wwWVO4nC4H0H1hiHO1CwihawTq0LSxnAYlnkC57YtlYEsEwNWFrBEgVY0uWrD1ewpl2CmX3u5psCFqPrST3A+nXXg5WPAazdwxCngEwbdZ3YTVMv7seQxvwB6/djBWu4Byv3vN9eR4m6wMgrKGFlnciGI/xzD/4xdtDv++b2YEwEFhpFWNAqhGqMIvxidLnfAwJLytGhFawPAaxJoVwqKFjS5asPB6ypaW6scaPrdwUstRSsNQfA6kx77pYJo+sowNoFweBGwyJMAE3tyXCo8+QgrBEerHsi1gAFq/Bc74jb22OULXpGJFWlUDgxiBel2Pjb7Csz9awFAAAgAElEQVSbjCsdLN39/FucepOemyZCBQDLYFnRBscHXSoCWFrB0gqWmGVpKSBffbiCNXEVs7qwFiJZw5R4CTDfDrDuKVjJOMAam+UAAw38nIxyP4vzYKW3Plu1Xz1XsALf++1lWD5DVOc0ZA0j7oEwF8J00cQZFs4QjCkQ7n5+YImQaCFUSMFiCiMxOV7FLQ1YGrAEvhjpCpax2GrAkgxYi9mfceCBbUoELEvWWuINWOxJipbnf3tUwMr4AlbPigUkrL13JaLcs+mA9eexB2tPerCwHKynswjLl+97bh0YmpwT0B6Y1daxrDOWcO960Pjuxo+oakLCaDOK8PS/Jsa98WGd1BhFyHru2PB7zMWXBqyPA6z1jC9GtoJl2lsNWLJPWbYMnX/Irm8+EbB4dxFyuIZ4375HaSI8ROHgHKyJIlYEZZ4Cj3IvRChYKcWDRY7NeaxgVZKV5537450bwIpRviic7uy5l+SeeEUZaDgGsOKOgtWRsE7KABbDoX3X0rCQfwHXgMX1ldkfqmBxG6C3UQSvPruLcPIRxljd3Qg6LPm8rbKem3fJ3GZfWt+9EiEirSN3wNr15hICGDnG3Sj3QpCCVf4vDYkMd2za80MFK4EodQ3PbaBE2swXvHUUrCKtCCtzHo8exP1Xo/a1BKwTltJwUg2wlvxvGabcEpkasHSJ8H0VLGX46rMVrMlhe4yf31rg45svC1jca+bs58/Io5cID/4Pd8AiyoRXF2pYbZnQo0a5X2/HwmEArK4HCwtmwGqEjxSspDvYJ6jH49RNkEccsABheYMnBwXj6oNoFCGW0YCZ3FUALIv/il7KPPuyAtaXBqzZFKz1jC9GqoK1VoevbA1Y89cIbUGHpWTAstUa9swhqxoMI6R2Efo5f8AiCCv3IGFVM2WqKPc+YIXQ1pSwe7BKwMKG4xCzcu5zTgl+Plnd7ECVjxoGY2QsoyRgBRQdKxjrbq8B6wpnPXf1q5NaChaTUGvwuh2zebPFRipgLd8NsHinaLDdt6/mW+bLN+Orj55FyLDzjGqLJehI4HJkSlpLS+5Le8kBsL496qwcPxMAWESZML5Uis8lr4ttPcDKIIPt0zCYCli/UUpD1UVI5l8NULAKONcnwKcmtiqVi+IaWgXr9rR3MBgZ307MeiYFLMUAi+Xsb/J6xBV3kNAKlvolwqkK1mq2KyQXBUspvtIlQhk1QkPQYfnKgMW/bM5j2vOdYYT+YbcTTliVaWm/b/rxbqTk5VaaEAjN4qZgEYXCZx4sL63S2UsgDJtaZiW7AVBqYQvmYO2R952a1u5gw50n4NVu93PGFKxGwlJk1jPjsX3n4F7IOEtwUrD4dDNqBUs5BUseFWyU4qvPVrAsGWfJAfvO8PDrVwUs/vcd7G8FGEZIBazI381BWIkHCWoPvO4lbUUkOlX8BSuJGQcPVm8G4XMFK280qfL1taJV1ul9vDTTnP3yL/Fdugo6pcFgGl/tdllBDMlRatYzo72AboYxpNx7aAVLqAdLCGCtlQcsDgqWudWA9fqAxWgYMt8TsCwJy4izsk0CFlKwSMryfWcWwoqPFT75UP9xiZ89V/hV/cjRmapgpbWC1Z9B+NSDldWzBjMw46dmqvTaSe/qWLTy+E7uVT8Ga+LblxV/97aTQjmjbAt9wUu+MXjvlFawXkDBUh+w2KlgudWApQ5gycKBjbhVsnpRwDL4L22bA2D1FKwIKVhhMAthoTJhCTEgyj3v+Z/KX27lht9718kKVkqa3Ad7sMLy5Z1RYdBvASt22ok5aRg7DjZ0MLjPVY2UNe3Ny4uiOyGnbSRUCLBYpFqLT0lkwR8kpAKWqQFLYPHMfiHAMmwNWOoAli3nLPlcZpoOWOyyjSUHaARUzm3mtf3rngfr4PthPA9hJdBoVUAxqOjTDTC4X33UcBiweLAoEtZzDxYIRM2RVHVpRCu35qSkCh11k7t0FfS+AF6siW2YSXE6kRGjfzdB7ooA1obz2XrF//yjFSwNWIw8LocKFJk/qAGL+UaOrdL7jIIMcQ8tELAWElaR2CWGDyOMcMKKknkIC2aO5lAZcoMeYF0gWVTz/dIoH69gpbSYBkLF6ilYef1ELqIpQFKHRrSqmwgDlOrezxYlBg7aHOQrp8SrRwKWGk2EbEUMmrdg/D27AIePVrA0YLFiP4dT9nqrAes9AGspFLAYVKSFNMBiempDxNresAOWT5/2DIqEvl+IKROShbPchzYntydhAaxClAd1LtBweA+w/jxRsMK/+m2EbSchDlhBUT9PXD7roRrknCKzO0CtqFPghFvijNimvWtxAfjq9DeZ4t7mYCkCWBbfFW3IPPdqBUsDlkJUYG41YKkEWCs5Z8nnK9bayoBGVtRZSTj2Bat53vc9wDpcSsI6xrMQVuVfAgGebo57sNJ9LaPFlyqyoRgHWL/RqBw0i/Cfv6hZWGcMeoCkVtQx7um+9rijSNRzVSwMmlGEDXq1hcCA7Bqsv5jcPbjLw6LCqxOWgnVST8FiiBqltRFOuKjY/MlCK1gasKQrWJatAUslwGLyKy1EAtbXSwLWWtbbee/ztZnX1jcW5d4XsaLzHEVCp4aVfRo5RBdh286YQTu8O1HBuuF9g1iaO65gOUAsC1ubfVJLVWEz67kBqmouoRuLlq922eVWnCgdhN1JOZYigLXmenRvJNx4aAXrowDLfhEq4FIgXKz/z97ZMCeqg1G4sojQ3lpcaS0t01WRojL+/793TcJHEkAhLwkB8e50uzt3looSHs85Oa+9MA3Dwf8ZprmwLXcCLPUKByhN58rjDbc/wLLVr0Oy39ybbBhh+FkxMgfZhHJ2E1ahxxFXMhyo4x3RX3i5qHXGGlc7wKIyWHyTe52CtceaFPn+ku0Y3GV1DUGBWtc/EAVrX05eBfQf6RZ3MXtwd/B3Cd1/xelY+tRgAd/sTgcLkYxBd/akYOkPWMJvvGEoWPCbyNw2K98Ti9kEWMPytDQGLLMPwJKz+QMe5mWHEZbqsD6vhPV5VmESFn7boYCdFYm2J3TqPRFTsN7qZhGWdxHi+Txpk/0mfvPyn+2Ux64SZhfhpQam6D8Tf1AQVo/+4ZIkbPSK+U0vwDK6/MggYossxgZYk4KlHWCppwIH6ILM7HoWMmYTYCkGLBguO/KAoz/AWvRwTHmmZQpY75vw88YD2YQnRYQV+TErWS3TedCfUZ4+rxDU7ihYVJN7pXqFfjEK1i86pEeOF8fp7Bs/F6p2zKbBU7hJqgsagm6G42B78LBLtqX5g5rWYMH88EUXtGaMDbCmJne59yyBE6VewYJJHjNT0h3qkQHL6oVDNAcscXI0e3gJJad5nzOL8BZhbXYrdTEsHGTPKAr1vKNf61uNEdEdBSsuFKwq9arU5H5Gh1zn3xJ+OuRbBXdVrQy3BjwHwN2D2B7cctMHuSIsvQAL8Ha3O7hcZ09jA6zxKViLoQOWcioAVYzO7p7v+QRYagHLkApYfYz/6Q+wjFdZD+ib7KW2aVS2TVhdcv7rYaDy9vk2wnRSzo0omIiCxe0nZBSsCB80yOJY+2zMYDofxyeoFXCJq2DF7xbk20bh9mCFfrXVUcES/6xd3pdjdfBvTArWZBEOXsGCfEi3HGnnzn3kXYQgBwm0teBJX8Cy1R9ZXj2cDQas3CIM6RxWyItYJ0WEhW1CVOp5Jin3t9gnjBVGdxSsn+YZLO5bvqYB90FE2SbC8yqdlJN+d6itvQpujR8UPElJag+y7aJ0yahuowhh6vesg9XXHh1gTQqWXMAy9KcCyAz1hcx/33lcwIJFdCCROlein9wfYPUi7sp1QyqGESqzCWt8tdMai1gxPuD1++ToYUkpPokoWB/FsOeKGYT/qjJYS6yiHYlFGcfkpyoGEIbUrOe6aYNdpa+iC7IHkyzKXlnRoFvP6BOsRM8B/1OuOTrAWkyAJRXsBQBLtYIlbOG5DTUmdwIstQqWJfO+3yNgWcphxn6V9zCggLVpAFiYsDq3CevYBLcxpGH3XfzmL1c+ybpfVlAFq6xeVSlYaP4gaZD3stJ2POF5lWtZR37fIL1X0GXtQvRLcPbg7wHbg9/fZVsw17C2GgIWJGJpwu+ZzugAa1KwHh2wjFdRAJoZcq/ZScHqAQtmsq7LDkJ1wou/aLRDav8u0A5hhxHyNQ3FHw8ydhPWaT/RjpS2x2fUpI7SUPs1Qa5ja8BaF4BVo16VFSxsSp5wTUT8tmMnPNNmIadf1TuEgqcH24OIrzBhbfn5gxR06QZYgBDWArxQzJ9GB1iCy+XTBFhjsQhFIcBtnJGyBgZY7tAVLABguaMELEv9iZTuEd4YRijfJqy31/bEJvRWwZpoSeeQr8QqWYR1ClZMTMILO+WZTbuzgLXLjnTMKq/oCc+FWVgFU+XnJFrUer4c/G2SfKd8xaWu8vSVjhYh5PK2wYufNT7AMifAkppTMpXdRgSpQPhDenMMsQcGWEPvwQJxwVzSitEFYLkdLf1aCFjQ0+FkClbJJwwrbcKjEgmL2IRXytmhfYQ+hrEd8Q39FUjBqupqKFmEaAQinpVzygblBPt0wnOAzUKPrxCt0a/EJw8ul/vUHqQFrEr9Kg+5O/oAlngil98C2H7xdRfjA6xJwXpwwBK+GS+kH+KpL8Dq7C0kTjq9WYSWvoAlHsBdqD+P8j3CK1+93ySrkOlr8E6KCItUYq2DCDuFeEchaR3dBKIZrNKsnH/ZF07BQiMQMdbtcrHqRCY8p2mshJ+FU1l7dYUr4TFDq11hD14Zq7JclMu46wRYgB0yM/DVaowPsCYF67EBS7jEfS7/lextsXhkBcuSdimAz6uh+MCyJ6ADV/DN3aZRuhHL8z78lRrAwjbheoWmAfrp/0yK3qM6wPqpU7DikoJVqFfkKwtYKPj1dsCDcuLNKp+P42dprEttQUOKWNcH7LyQ8itiD9IO4Zb5hgu5a8RXndWwtCeLDiagj0XBch8NsEQ/PIuInkoBSxCw3TYlVUMDrO6U6uGF3O8PQugPsMxuVn4VcRQV5yOkhhE26GvwPrzNURFhnQ/r3xWu/dznUwKRqCWiYMV8Busf/YVTsM7prJzgylnpnMFdPuH5uE7qk+1u0Mlo7BOyB7fEHCSAVYpffZUtQp0Ay+7o/WwrXvRGpWBNgCXxp1EKWKIIYMt/Jd2+AKs7BUt8sepNwVpIuxTA51UYeMTeSdAJnbJvKGhWThmswjriCjcf3kcSKMi55zbblW3WmWoVhTgb1UrBimt2EVLfcQrWCue/8KCcdChOcMkBK4r4cYPZb8uOTguZjZPkdMULWBUqlnaAJf4xhv1gOpd7U5kUrFEBlnC+VnPAEnVBZo70S7YLwXjewUIxQAUL0oN1/20kEd4kceNc6QKkKnPy3KAIK2Rtwg/Pj5RIWCm2eHHs5dOed1E7wKrswSr1NbCAtcQdESucxUorRf18P2G1eNUdcuazcb6/C4eQIattKfH+pVeRO8wYt4F3THOEgDUpWFK1EN0BS8k8IsHPRLPeXrWhZ7Asqff82eAAy1J6yav6yP7MVbk3tAl/lUlYZCDgJro77LnGI6zcRZjtHsx+cYDlkawX0s7SnzBkJzxzvQwd4lVwotLtRMQqjx6sdAi1AixA8fQcmCRwRghYi77ufQ8CWLbegCV4LNcZBmDNe34L9bSLENDG3GCRE1+A7X5WfrHjKhCw2gnB/OMlK8IKG0fdQyRi7QJFElbaS7X+FQOsOM2487sI/9FqFg9YuMr9uDygGnlCWB4BrKD6B+zuQezBbYZWRUXDtjTkmd9FqBdgiS9aM9jlI4kqhqhgPR5gzUcJWKJysPU0DMB6UAULoL248i4FcMZC+GmZik+imsXqxXv33m8Yg2GVtIUI6zNSI2Gh/wXPzqlFuhywfup6sGJGwcqTV7UKFkpcvf2iQYin9Edc0xOeqTqGoFO8yuzBFK3oLYRVItaWUbD+aAVYgB4WB4JprqUXYM17xJgJsCR+eFYIWKaSO5bRG2ANVsGCXd2AeoEGx+0pWAZI1xsKl592LzPkPY6r3MM7HaOVNuHHXomEhRAmWiNJ6RCJKVhsButfRQiLByxc5X6KrpR1zmPv8TriCxm6nn4dJCV7MI24b1kVi2Ms/TLuoF0sBmjpXegFWJOCNQQFy9IasCwl6NMfYD2oggW45Td4v/a0NVK8H8JVecGre6v9QQrWprk9WNiE3kc3NmEDwFoe8eicGpvwvoJVWIS5dEWbhSUF64SOluxxBIs8NvH6KNMaxM/jgncPflF4xZS487LVFx1x18whhGi3JuhDnjFGwNJXwTK1AixrlIAl2BNlKbkzdiDRPqaCBWiqavLU+wIsU+VhTTV8BTklWMF6D29KV2F16eiHF57lExaBuCPWsKptwpuARWWwygVYGW7xgIWr3D99EsEimpYf0bH2YNn94zedjUPFr6gO9y0DV4xhuNUSsMQ/FtqQNUgWVPRrEZoTYEm9VWoNWKJ3YnPkgDVwBQsCBw2eurh5NuvlEhRyJhUJWJD3GhpG2EbC4mzCk/QUVsoy5zUelOOdAQoWvX2w2E5YoWAdcWV8TM2Wjuj4lQy8WnH2IJXAKhe3lyoaNBuUA7rAKSZp/2/IimANMYPlToAl8UapjgpEryRnKIA12FmEoKsbEh8y5F2Yr8BufmFaXahbfJS+0O9YwtpUZdvDShkrZHYTdjE5527KHRMWGkWInLvWClZ1BoveSsgDVoRh7g0F3WkQhI/AqX2cL4fLlvDVVxG/YhPupZJRImHpKWBB5j07gIvVHiVgTQqW3JuW1oClJoL1wBZhPwoWZFKOXAfS6eHFFMp2KBOwIBJWiBQsr7ZsNLw9m/DDC49qAGu5OhBZqZR1v6NgpSah/7dizvPf6pB7EBOYi6Olmse+sAep+BWvX1VF3beaCliQTTKm+AXkmqMErEVf977HACxXa8ASLDq3lACW2xtguRr0YM37IJFmh+1ml5HCZb/9HcxQx1eAV/qZKFjepkXEnbUJE7mElYtGwY7ISutzHWD9tFGw6EAWB1jLdUpYavBqlRTpdhayaiYQ8vagbh0NwM+Flvga4TqjBKxJwZL708w0BixH0RmeMlhqnzygwcmSSjqgE2soPJUir5ur/KSgYYSbmyLWZ1j/N2Enk3OaAdZy+Ysr1uNNC8DKm9x9pgeLdQpLgBWSEFaohK+QPZiQclF2/+A3D1dbfhehxnwFSDZklGT2stxPCtZwAcsYIWCZiu4IhsSbvd4WYS8KluRNhACAA0mDC6nQCD6Dc9HXWjzQ+uJtXkKiYoWhQNZ908XknEYeIRGxEPgErRQsImIdmDHPrFO45wHLJwLWTpE9uEu2X/Tmwfy3LbNbcEj6FSiBaAtfrPY4AcucAEvqXcvVGLBEb1nGBFg6K1iSM+59NY3ar8oWBJFDGebrq+IV64/38uQ8exvv3QtDuq4hbBjFwjYhsBKrKWAtl+dNHB9aKFj5LsIDPySHdgp5wCIc93ZUYA/umPIrWr/6rmhmYPSsLN/u6MhXkHnPriG6RJjjBCx9FSxDK8ASDp5oDFiiN0pHzbnrDbAGnsECjHp29X1WCjPuIvcXW1zYE5ew3v9gHYtIWPdFrJrdhMDJOY0Ba7nyvdYZrJgAFlM0SsNWScFKcNorVGoPlhiLRaot8+22kK/+e9L0AU5xzuTfVSYFa1SAJdyO7egLWHOZd2G4p9SfgjXsDNbsVfJRF5IBrtun1f6YAgCJsifiL7awhEWcQtSGFZYIq5mMhW3CvSzAuieO3VGw4jfOIky/FHZhGbD2qARrfVZjD1Ly1Re7g5APtzPApbM9CPwIRZZtR+GnjEnBGgdgia7vhr5UMFN1758/KmD1ofVAIljNchCAiIah/Gm1XyedmdiiI35agBuo/jx7XhiGTUQsGTZhcwmrHWDluwjfS8Oec9oqA9YvGsxzVGMPFvLVFz2C8PuLz1/REXfN7UHoFY4XEbOX1X5SsB4RsExtqcBRdu+3JsBSd4VBIlim1DcO6MyacqERdgJn+GYpnlyBvtVf3p/DsJFNWNHX8AOcnBN0Alg/tbsI4/VfdsBz7hdeAauUwTrHsS+9A+voI3swKcbi8BXuJQGrFG//70njhwMBrFfLab/uuYuRApZYk/sDAtZ8dIAleMsSePGFOMPtD7A6mzrah0UI6chs+MTFtxGKbxWylTHd7H/2zoSpcVyLwth4heGVqTIYDAnpCYRmUv3//96LnU3yklh3k+x2ambonprpJLYsfTrn6F7onBPZAM+jirXu0LDWw0CrsgnzHxYJ69r/eU3BqlWsz4+GenXirA4F6/GV3x786eiNU6r6lV6QoezIX93eOP3yUIQVhhbn3FnBGidgRWIfx3HAAmy3YYtjMn7AsqBgYRxCj/ey2uFGUycGLGBhjBV8AuVufdCwes8Rri/YhPnz859HBgnrHaFgnU4Rrj+a6tWpClZbwRI+PVjq6avuhPuZsUbCV5i9gq0HYFawxg1Y0LUyEVpKzDsNxGKAFc+AJUYimHxqwv4e4LQR+OR4yD9mjroc/HR7RjBrVYQFtgmLHWLBO+e8QwHr8RJgnTJYnx9nwjr948hX4oC1twfLljOo9CBcdefbT3i1Sh3nK1TOwFYeZFawZHzg2K0hJxUJN1ewkhmwiEQPlyxCjLgfsE4aKC9MLIIVIKgRUyADP+buDwoWqOjoMs8RnXOgHuE1Bev7qGBViKUJWLWG9bGRV7CO9qDW2LlxglBLuK9apwf/uXH+5QvzVZbwfZdZwaIFLKZbBQUsT2iJNFewgMtBNn3Asi57wp8wzPmfwYs8IgObCD9+xkQXIr4TZt9PsIW/11zCLrHqUiGH6jQhOB4OBKwBCtb3XsE6EJbWMMeCgvX16/PPqiN+ddawugs0qNWvXLcH61cmTFgB31cZY5mGSOAWOwZY4JXLeGsK1CCMfa1IbCkYGWBl9gEL/ISFIms8XCaDZi0iocfPx3Cpb3mJuX1REWtw3v10mjAHd855ZwCsZyWDtfk4vs7nCT/kFayzPdjWr8puAesUwxpBdQYS7d2WgDspwPoLFSxfauJMpSbo0G3AymwBFmHNO3HAQhWwiSWmX2C+TSqCZf7NVEUX4c/SjLoBQax+FatAlMSChbC+BmewFMTaY9bhJalgvf+c0+2NygztHs9qxl2tfnUzjlciC1icQDErWKMALLAtYvp5fKmVyxNb+0d2ijB0YJqKJL+w8QhCeGGwu+oLvZ2Pu2yJDN9esQmHJLHWfacJoZ1z6BUsNYO1aTNW9XtRBauyB7c1X6n5q7KpX60u5dtHYQ+id2rOLNqzgsVANFzwB9xDG98n6OIlUe8HePMjWwtOaHkESQMWaloMBXgHKtQk/NAIfB/t+UZdfxqb5PalaCSx1kZZd3DnHIiC9WioYG0UytoIK1i/Xz9/bVedypWawFIlrNU4ejuT6gnORbBmBavv5RhgeULzZiKzlMi5LlDO+asBC7SlS1H1AQ3eMkVkYH25G2kc+YJ8r4DoulCNu/SuV8RaX1ezEDYhErCWnXWwvnUFa/Oh/KL+IQRY71ul+JXWIKd86xKwupo7j8UexGvh/EHlWcGyBlihayPOkM7Fmh7KaRDZqAArcwCwYAG0RGySg0+/oKsLBpeI/QJ6Kd2yRLOPT+u2OZePE16yCXeEBeqc805/ivC7ncHaHNlq/xshBevrT2UPrtSuzuVbqxOhXrl9PL2d6ecS3n3QrGDZBCyumwUO9ppdLLD7YgpYcBFYKEBjTcFKHJilIJ/BR+knIf+0AXbCAhlkgSiACdV1IdwbHoJYy74k1kXTsCo6mj//EBHW/5AKlpLB2hzg6qRnbcQqudf24LbfHlQPEJY6Z42nuChh2sDelnYagJWJAFYmtP4zL5aZ2YqSuA9YvsQYmwFL1iA0u9y+1Bshn72UfaD6ZNflga5I8i3eJoR0zkFVcl8OO0WoIJaUgrW3B1elWq79TY+37wNYq2bGfaT2IG55sDjuZwVLArCYtgqxyPCBpzjcBaxwBiyJz4CzpwxZBAFzAIlZ6MAr4G1CuuvS8htxIlbtEu5FrLXhccL6NCGkc44hX11VsE4W4UaLXskqWHt7cHtJu2oLWMdCWKO0BwlGskAuc1awLAEW04kEsGZqdKeSB/cBK5Z5I4L7+DcBFjI0YfhIY7rCGJOzLzNSA4J3QBZopNvK10VHLxRsuJzJqk4TQjrnmPGVsYK1saBgbfa9cRZt/Upt81y+lWVLwlqNmK8kS42yRrBmBYsaoZn0Rl8C0BExGjnASiSG2F+uYEUyDzJ4+MSS86mQQxgSvAPyNtBJWIesuxZ2NyjYUHV/zgGdc94H56+MM1iNCg0yCtbh9OBisbguYK16muP8M7L4Fc2E4oxeMwMWLWBx3S6EKT34VmFiNHKAFYrcR2sKlgunCI3zzthDP6Hc02B+Z2UcwoDiHZDRFdKmt4ese3G17Oi67zQhpHPO+0D1apCC9X1UsDZ6zl1Kwdrbg+VisSespoR1jmAp9dtXzeY4N6N8CfZ7Zo1gWQasZHKAxSY4evwrCiZGI1WmwTTlJtaml+x6ugBYmSxfyTVaAug0QmcII5KlAVk/yKNUO25PeKUT1nrQccL6NCGwc85QR3GQgvWp+4IHp1BCwdrbgz8HvirbzZ3L1gnC1RTsQex651IEa1awqKfwzHfr81T6wKBpM41ER2kmshrDRTlrCpYLrXKMbmeKzkt4kl/NVKeRqTIK2bF3eJBY1CVtGpKeexOuB/mD65fmacLXL1uApWWwNqciWButWQ6ngvW4/fyz2m7fFkcBq81YWgn3lZJxH2t1BuSGQ2IzOStYtoEmdm/ADZk2U9zmV6wXodntjx7GBlgPLjR7Nlloffxe0/yRQTkIRnugWIZVEpoHAVs/KKNdke/3eHVmrPVwn3BdERa0c84wO/ESYD2fexEqhwcVzmJWsEx9rpEAACAASURBVP5T7EElgqUzVqOEe6s5zs14X1IhrIy5bPkMWNRLM9MNQ+1Nr9NCgFwmfRn6MPQIg4fxARZdoQ/EkBlOeXGGnuMgxhRqO2AwgcAlUKMnAlQfJSb6c7hSWDf7kliFYhW2SGrdS1rV/wXvnIMGrE4FS+GsDa+C9W+dbj/IV6cEVpeMVTbLt6+mwFdyIayE93vMgEWuffB4hCii9658phSdopEErMGPBKa4eGBtCJEV+kj4p52AomlYLPzdTCZV8PuE7F+nU23C3g+P2lQ6Fh1dnus2nH99MYRVE9YOsV7+kwCs5YAM1uaj8SsuBauyB7f16UFdwGrrV6WSwFpNJH6FtTjMnqKA92vMgEU+g/N8PJwpcpmwAvxg9oXow8THQJlX1gCLTkRAQEg2aN7xSXqygtZ03OMweFYNZMYPSCcLWZwV8oTD/VG/Wip/q68ue/DlWEerErHYbELDU4RqmdH9r5gUrNoeXP0sFMBSq7aXzR45q450+4jjV/hMjD1TnAywPItLgAhgxYKwMWgORq5i/R/KpxjKvuDqP3AABCi7xJ6CFToAWDskv3YB0pio5T1sSQ8loA6O6B7/ZBOzOCv0p6BvTzGsokPE6hOz1oee0UVR2YQ8QlFhomCplHX6yQJYDXuwqwhW2a1frSYRvyLaKlhN9MwKFmN8h+eeeTzrmE+zU0hFn58hazIyHGQPsMjOoeJstCy6cE/TIMnsznDI+XfQyVpEYbiY/9n2eZwVestkX9a9OJXFOglay37IOv6rYi9irVlswvUFwGpksJoK1sE2ZACsx1+6PXgArLJ5fPAkYHUVbx8/X0mFsBJHAWvyCpbv2k1Dg1DYMSMHVEKsMWAFvKsA2r0K7AFO4gRgPWRZFHTd1tSPw4xuhgNeaGycewBhIQ7WmtmeoGfB45omGOauuyZeFWeAaoLWWb86/qdFFcX6EQYspRdht4K19wjfGexBXb46J9zLt3aTZ6374FTiV/tXJgJYgaOANXkFC2XJcZRqQOfQH7JQH01+QhckNAYs5Abl8hVO0fpKZhGwqGIBCcF99aIkDgK/fgVBHCdRNWYI5z7wRIIlifCaUIiJ8AmU2ko4Ni5cS869DlUKP6375CylDnwtYr3Si0UvcAXrkHEnB6yWPdjbJqfZ41mRr9Ip8NVNKAJYqaOANXkFC6e1M2hY+Jlzty56URz4abpbLOPIsztOkYv0BQPLp7CvfIuAE7kDWC2WIt5Xwv1Q9PNwJWWGOflhJmD5lByUom8Qy/SaVln3vKlgFTpoLTWyKlQSK/J8/VtSwXruy2BpbXOILcIOe1AXsEqtUY5Wo2FK9iDd9GU7gjVGwMpkAAuzQ86ykDzpTu1J066U5oCF3aBkSdpNVzQ7H4J9PDgmRHR0WGSGwt5EmzvcpH/U4srTJ/wzTa/Mib8sPHVmdoiVPxXdClahRLSWqrJVnH5WPuFWOIPVdYpQj7nTAtbv15Y9eNSvyg79Su1BOJ3Tg5SKgv0I1igVrFDk/iIjwllCPU9lLq+U5o811uLZXY4o9rVsUBBHZBfJtwhYV+uWTQawQiuX93yd45TDYpYQsCK+y8K16NzlTwfEUsDpKFTppwwLNYN1+LnMn4ltwjXgFOGxCNaG/BTh+94eXCyagFU267i3exCWU5OvpBa8YNqABdu7yQAWHqDD5BQSrky5IPBT8YvlLmDRHMPNvKh+hSFxYTrf5gjKSOo9jgCwMFc5pbjjXsc+yN9hOmpyjwVuU8yndHOVBkrv8uIpL46IpQlVxTEBX2gmYqGi146wit+2TxFqiEUJWHt7sGzzlVb9qlQpq1W7fRrpdskFL502YLmsYKUUy/9uqfR2a392cjf9ia6X5gOVzvLcDceHzKWln+Abev7fAFiJC9/PS2L/vBGqs4m40WQ2NwJDUz6jdRrfsBHWU/H0pBiCRSPsrmtZDRQr8jx/3nIB1nKwgqW4hHQh99+v7XR7M+Fetno8N4q3p1PiK4FKWJl3M23AclnBIqrVv1v8tfkaPnkF0wIsty1PCsBKUcMmnj5ghbgFwacaQbs/p9oHnTdCkrYD7C55jLedb9mpCKtWsfSqo0ensFC9wUKFq/3PZdWb8PVLBLD6M1gbJedOBVjvP59/Vm178Jhwb5KVZhBO7fQgwxbcXgRrjIAlpGBxKZTghTN1mUimZnmSJH1xNyzyJw5YmVNfMHsgOvhhOD3B9nER67rEl0y5f8orFasoujJYTQmr0Gs17Akrp7MJLwHWs6SC9VXbgz+Lfv2qeXzwDFirKcavKCUOG1otHrCy6QMWj2KUwRMO4bQAK548YGEnCCRiuQ5Y6GXcyS2HITbCnoKL+iZ+XWI8p31bVBJWRVhaur1QZKyiwyVUy7qT2YTXFKyrGawNDWD12YN6wr2hYR3qi04zfiW1BfdnwLIHWFzTdzLFBdNNBdjyo4efIMLYnyxgEcjzyfi/FnDXlPJeFcaFpw5i5U/n44RFf4XRQlWzijNiEdmElzNY3xd7ER4ULIqP8dNR/EoRsPRce59+lU6Pr/hDMfwRrBmwxBUjuLvqMJFk7lxfhwCLZP0Pk8CfImBRPMUOSliGubKAYQ4hOEfImk2po+75ySY8G4WNDJb6z7XenLDYkFdy71Kwvi9Vcq8zWET24Oqnl6862OrEVxO2B+vHm/thjWbAssSdrB4WeO32pgVYydQBi2wAZTvKmtj1JSlE4eBXNBw3wE1GwjxP8E6xVRCrONTE6o5gdWtaR9p6zvPnX++8gNV3ipBawdrbg4tFH2CVnR1y3vTqorc303xxb8HjGbBIJSBH9sfxdJYTFGD5Uwcsyi+YmR+5cxmwaEqp0tTCsmgQQkdIwH3jeQsw3hZ10v0p1yJYehJL/atBYcXutSawCV8AGaxzu5yqzugH9vTgtrP4VXeTZ7Xi6OTtQVaJQy6CdRNbBSwYoUoBFlfIDixMBtMCLKc9Qopnj1TiNu8Q5TBgZcFIpmBm3xM6w6TcYM8cw0jv8vz/7J2Ldpu4FoYD5Xp6pgsvu1HrYDyxg5M4K+//esPdEgij65YwqG3aTDMNICF9+v+tvatQrGEMFhr7BJGHDr/lbcK/EgpWE+UubQ++jtiD9AxYeyzD6GPbgxBbcAiQEFaw4gUAlmdbv1rrETqPsDqq39w4Ri8peny+sgvSE97EE6KZvHztDyXRvbn/WSfE+o2IyjjDz9BoHPyf3VeqD7De3+l5sLA6OdIK1j17sD1BuKekGV0KX+l+uyGKGoczBKwEqnt1GRDCzy56LMCyObOXkgVGrQQaPQxgKYx9cG0aQx5QD02NhBB+sInYhGUcVludkFqP8ExW00GkjJXt/uQKLcIRj5CqYHXpGnTZg1MR7g8ffgUxhYUrYNHb3PtXeP/uPhZg2WxiKdFY1Ep0waM83XA+c7BWKBHeYHi6/mFIm6AqTVj9IIvmEMnce5lIyeOE2Q6ddMVgYYA1VLCOChSs/PttJPlVT7/aD3zCx03eDrvguStgKVaALJFYIugHZitgWSxhufbND/6DAJbijaM1vjl33JIof09PvoF1vUS1Cas4rF0b6z7MLEopB014iUjuNOH5+Q5gbccUrAse6i78vS9v9+zBwws1v2ibYXQR9qDuBU9RHPkKWPZ4PMIzse6osMHYg3Jt7ZWwPPsWf+chHm6i+oCaJSZhwp94wtE2fyhIhQWRbbA7TYhR0xlRyxNi/EXmdZewCe8C1vtYJncVCtaEPXjL0LAnLMI9qV/9eHi+0hqmG6yAZRyw9EgsEg8PYruehBFUl0AujoEHD1hKAT15BMBKvFlNwhz464Jdd6RtZoU2UJq07mTChhFTEAOtG4wVhCVuE04qWO+0WoS3Ys8FYKUS9uDhLl/th8Ht9adLsQe1exwQIVhPnihguYsALE2LlGfzYuLHAnftWvV8afqCxyX/KeIAlYpj8giA5ehYtm0oGy4wIYpCEMvYVDDwIpAJ9meFV3X5Z9T3BHvuIMle9R/K2oSiNqGsglX8SsXswe9/7/PVfohWjYy1IHtQ97vtPj5gORY/GZ0EHYE/Mg75SmhpFt0NAGWKrGp/cMGpZ9/weQCL0Nfy6lqQblQAyIUZiEkAV5CpAWYfW9mEO6x0zihOIdI9bP4kYROKxGBd8FOEQgrWprIHP+/rV4PSzs2nS7IHFZndqqbTFbDmI2FJxDeEECsg/zeJLL2fxh2Mn8wAltIN2OwBKwk0rdnmw7AEhoswAgUw71USwsywlU34uymdMzABzwNlq/enirB2JzgF64LHYPED1vX7773Tg2SJ556GtYDk7TrMbpMKrbsClgHJKLFxwGGDjn929u28nxpMPAHgUARYKj3CuZ8i1LhiG65xIGIou/+IUmEING/5UFPszzIfVpWwASE8L0OPshARAH/7PdvtnoVswikF652eB+t2ilAAsCbtwQPNHGyUrIXZg3p34B7I5cdzBCwPsoO1zN2ulWtJSyL8g1riyKtuf+dWxM8EYKm8u5kDluPOcRrWxVfi2ibjacXQ6CzFbxMWP3YVYSF0X8FCmIDVfmmBWG85iILVy4OVitiDLwcWf3BP0tXLfnH2oNagGCAHfAUsUJdHxR1oC/u7GTgCECc+XDWrD4EYcKgaY5GOO5kjYAV6J7RoZnwlHp3HqgPKS8MR2Bzb2IQtYSF0plEWBlcItwvROStj3U+webAuxxMvYNX24OEwDVj7wQnCG1+5T4tqoe51QW+bIWAlsIClQ2LxLLue3nTqgt6RzkNgeIlkI4DlarmV2QGWo/2dNXa3Ysqc6OWy56eS37gkgJE+pU1YIVaGso6y8LRX/SAsROpZZSQWr03455mpVM6wSk6jYPEC1mki+RU9QcOe5KvDwvhKVxAJFET4awzW5BqZ2NW7WiQfIkAm1revhnuDBptwI4ClEB9nXIswAliqDSVr8IVuTVjA4khnKv9AQsBZ9keV071ArIKsMMhCmHpFVNDpe4gZ/2lCgTxYF7zUMx9g5V/fE9HtbYEc7ENLWp18dUm9p4U1LQcJHajNQzDDRKPQQyy0C7B0rJw9hYGbfBMZO0FbGBZ5VaGRMeaugOXDvLBG7lfQ+RS8Vq6NrfzG0IecZX/UtQlblzBDuJR1HtbOGWQhLUWsk7iCxRKDdcSErBMfYH28vk7ag/0ArPYgYSdf7fM0DZ+W1nS82GD2dzRDwAIXSZVvjmMjz+3OTOrK3rDUXOzqIayel8yl/IX2DR7eOcGODOf/OOGcJ2IO3RdAFOezI+UHAOxW9n9NbUKEsVUnZhFKFsIZq/MJy+OEPDbh+Z5FSInBwtK4V/rV6cAMWJvPUr76ZMKr/aAMYWcPbtI0DZ6W1mINFgeY+y1aK8fk2gOfBERtDyeyOc5USz6DbXgIC1h6Ehn1VyPXzNKi6t6SOQJWkkSAb2sInA9LOLIsgOAr+WkrAV7M60CsOtQ9u7FVRpGxUP8DOnPXJuRVsC43BatUrzgA6+N12h4cxF+1tQg7e/CYls1/WlxTvwGHO78hmAhLTRpUsS1nAt/Dihk6tGrEUbbh/L6WY9srRAmOSYwAljJhhXdS8Czgqwh2M+SB5nQXPhjpqhrRutk+Ad7L1mndy9o5PaMwQ3iOLERzCbucWCdlClYvBgsLcz/xKFjp5zeHPbgfOz14Teu2PMB68hTvnCDHtSMEWGq2NmJ7bMdAD6vUjFT4qwolH+q22IHuFNWERcsaHpgBLFVjh/edMw5YTgSuNbs+3N2JDxExASuCmmC1OOWM70pBWHVpQswnzEgZa4BYRAZSjtOEvKcIb0Weq3ZkBKycVb6iFR/s+Opl0/BVupws7toIC3JYiwVhqblCF2ShsU6lDG0acfRtOLfq4tv0gEeCY0IzgKWKdHjHfWwYr0IjKwFUIJZEXi8XjudkAwDBN7Nvu9/n+jjhQMEinULUdwnbj2jHahPy5sG6pWdoGhNgfXyz8hWl9mDHV6e0a4vL06BcmwZ1WT1zWRoE8zSYOUahziVUA4hqgGSMlLmPkcvfVKzwKAG9qDDPTcX2Lfo+yNulCHB97yGm4tG+kLk9AV1J1GuVnrWguxFtP/PX0iRsbcIMD3lvot0RpTAhIiKxTnoUrDa6vbIImRQsNnvwQI1ux7IzNPbgr/LD4vI0qNamHdidn0gmLN/kymOI4FURlqqU1ioIy3dV9UxkajRQLyaW/QaKd+6+EcAKTOGVH5q0MWLt9y15MDJQ+J7q9qeh7YLtLk/T07ktTZjdHMJb1Hu/HCHqR78jttOEf/hjsNrwdlYFi80ePLwMag+S9mCeYm2ZgFV6bRpjYiyTsFRdoguxztg1cUf2XM89o5d3YlYyItSID+PqAvNNqT4+pQTOuUeOkSCsxImMexie1kgs6dCyQNmABtiHwXZmvEVpmqfX710XiUUqWLhPSKbBwnWtjKk24ZlbwerMwWNzinAzUdr5m5mvcG+wn7wdk6/SJSbC6ha8ZIZ8JZJrVB0kCDCCQYCXP/iuNimQ3LH0wFW3OisCkliBiHVv+WM+G6D6JVQR6O6Z+KacdBWEdkSIhNpuXcHByAgOr+QJKwLttx/bXR3M/VnXf+6QKuvisRodC0vqTsRl1cLW7nmHTtIKVj8GqwWrY6dgbe6XdmayBw8vw7bHsjN8pGSLnhbb4kj2vU58A+J6YOQIoeAaYDQNiKzEorrircTkORk0y0OT6lxt2Sc8YaYwng1Qb4zIG7oCAx9WwvIji8yLWA9iKYncd3mIVf6ZysmnsJkafmy3lzQvfqTXv61NSIZgIVp6d9STs87Pzww2IUcMFq5e1WhVx2DdA6zrK698haVoIJK3d/LVr4UDVjmnSTGWY0b+4zpJqPYaeU/DOWZ3yFK2nI7AX0ERi2Ufzk5YSncFMivj9FErJtDRscuRdQmFrgnoSF3iB6Fr2+lxDYjlK5r6WCcRVXkupKJXQJek/2+36LopXcJ0g8e6Z7efGZ7e/YzHvGOcVf4vu+e/V2UxWJgxeJOw7gLWqbIHBeUrMnk72ZaXyr0/h3uR7whNU8bcVZdZxFKe24aPsBzz8R2OtsUfDPkYbQ5G1UX1riAWXQ8SJnlhet3Vk75Jis1FjSnduc0dP4hCa8+NhypjsRTGljHBthMorCYg8SBAMzUUgLW9XhvEOiE81r2nZGWIiMbCQ7CqwoRlaUJ03yZki8E6tXDVUlXLWncBK6/swc+DmH7VS95eK1e/VsDC3yHXC6Mg8B3GGa7YAxrdAsZhMJVy1PG1zKWU0DXH9+mPLrBhmyy0/muEZzfQtljTo4WTun/Kpmd5FbLa2dHfjQJnnBj0xWiL0k4iMTe4kWodp+79KApDz/6MPG6g5vaTwFM75wHS1Z032bqg1wawrnna2oT9fA3ZIL07ojmFxV8UfJVlrxvZGCz82CAhYN2zCNlq41D1q6E9WLVNnq+ANfI2xa7rekUL8RZ1LfQsmakqKIwKLKxbdW1FKy/d1ekAFHBX0FQ1cRcPA/tOxQUVl9PIgYkfWTKh80ssgad5GUk0cEj9T4fN82+6h+gfi8QH3uCYuH4lq6Fdtrj+qHm551/lEunIptgNiVc6CiktutPqr6ifVBzPLY907EmfPXI0BJfd0VETX4smOIHaidO83m7bxcW65XnF9Au5oBeAtbtWLS0RK3+tihOS8lXWT++O0Pnc9wm7Lz5/sCpY2YiC1QpWx1a96pBrDLDSTw57cKBfUZK3p3nZmj8vsBjh2nQjqmUTO5fEAnFuPWYEEn8+Z3w5FsYkmEtuGD6D2aqw8Rk3L/LFpStdDih1fPtB6Omb6QrU9hMKVnmeLRF0rYJVi1hFO/3eteWf8eirjM5YCFewWtXrKxVUsN4bwDrekKpVsA6VZTgCWPlryVfs9iDZ+vZgaQ7mK2CtbWHMx0g0cGv/tBnkRPOqssAoPjjhnFQVVmnOCbx4fc0UjqU+WzCFbeh9YcooEt9xEmco3mt8Eph2a90IKwHr0hDWdVPZhG/dacJOwcqoiIXlwbr91/K3v7msgnWsYq/Ig4SjClaZ/Orfafnq0Ks6WP/aU5O314C1WQFrbQtq7uS+2AFWVtxwdBGxJkMRN2M5s0i8xCVdTJLwPDvL/sEURmwxWU4ZW7jyrRnAer1cPjoRK0/zMuloGYmFRV8NikBnWCEdTL+qvyI7n1gUrGwkBuuIm4THJkNDzVwUwEq/2OzBA5G3fZCd4QU/PbhZFay1LVTHGp2wDS2SxSIS9G0Avb4DxEOmcmOxCs71tsY9K2fefTWLjVEZaRr4/ZPejtNFGa7PyCRg7S5Fw23Cr9+kiIUnHSUVLfwLcC+RHuvOrGAdb8FXWKNahGXyKxZ7kOoP7vu1nX9hEVirgrW2xe6L8ROPdVSD2UXSddsTFd6DbMTbQ7nlKuiXZ9jmjiFV7Hk3bhwHziNaG9YLZXPj9blbBFjbErBaEavKOno5d4FYWV+yyvreYT8cvv7w50NAwXrHg9yJn4cRBatMfvX5yX56cE9YhCPJ2xsBK2+AawWstS1zri4n6nWmXhv3Gr8+hLWtrQOsr4qwLt1pwjatexPr3iEWlq4hw2OuyL/6j72z61FU26Jozumbe08nJyaWKCUqCCqChP//9y57b9jfWoL9OEZVpSulne5KeJiZa665Jq+rXexgmePOXgTLF1jrru/Pp9Ms+yp73c4gNNWgrR6P5rFmRAgAAACLBVZb1ZaJdZv6GgZ9laTOPcLAy3rmYImX8iDr7gus/FkPludh6VVCT2CJ8WD2rr7y81eZf9tZTwiFvmqarwaBBQAAAMsFVjfomcDEakUQS0msNH7+2dFUdkhLLxnWMwSW42BZ+4Mn41+5AusoxoOHt/VVdnDHhN54cGVXYAl51WiBRdEoAAAALBFY7SSxJhPrdjw21yRRU8LcKWEw+as8ulc4vZCLrPtxnoN1Vw7WydselCksT2CJ8qu3xoMn7+rgi/HglL8a1JXlYCGwAAAAYInAUhgTS44JH3tZ6751BoL5q+qG3LtfmKbfjwUOVrg9qPwrW2DV5Zv21cnOtgfxK+u280rrqy9pYCGwAAAAYBm/pMASBpZnYkm10QmFZV1/9o8/59F6rNzE4HPn/PO7GazCS19Vk77SAkvexjmd5uevvNvOtZu+Uv0Mj0Y5WNPP/+ExAQAAgNkCa9+1bWtMLGtMWF9k6ajtT7kbg/nTBtJJh1mVWO84WHfbwTppC8sVWDdx2vlNfZV59VdZMB5cufPBhzCwvprmMf30fzwmAAAAMIffQmBdu4FBYrXRMaHV1xCOBd0yrNz3r+Q2oc66/+hg3U1NQ2H/cXIFVt3PGQ+6BVjPyttNv6gcDzbN1w2BBQAAAMtIRJV71w4f3ehiaRNLKoyxr2FrpdfdRvfoKWjPxxrPP7+fwRqr3NVJQqOvpMAS5VfdjPFgZn3Z7QyFNRxcOfpKGFi16R7lADwAAADMI1UhrE5pLBnFckys47FKZa174hVh5ZEyrDxW3ZDrSqx3Mlj3q+5oKLz5oBJYb5dfxa7jWOXtj2PUv5IBLOGb1Vp+cckJAAAA5nEVAqsU4kpKrMDEGjTW42pOE+buRmGQwcrjUSx1/nnGLULr4rMtmYpb9Xa6/XQI+0WDdoZVMB8cPuS/+9AvIrAAAABgHnshsC5lp0wsIbNcE2usdU+Tqa8hD8aAeayuwa7Kysese/rTLUIv5O7Lq4F23njQ7m7PrPhV5XhXq8C/Gv5pE9DishYAAADMo9xIC6ssu8nDMiaWqXWvtolpxLJGgXZ/e3RyaLRX/t3mPzlYOuSuSkZPgb46nbLD2/oqe3Z7MChvN/pKJLCUsltPb/iLhwQAAADmIZtGN/tSSaxWzQr9rPtNjAm1xPIS7n4wK0+d8LtZLxwE1XN9pXuw9m7F6EK87qvseXn7aqpnmAqw1KGeQusvThECAADATGQR1uZSlqXtYrmVWNLhKeUuYRLYVHnsQmEs+y4E1QuB5dwi9OsZFskrF++288r2sIx/9dU0Ql2dqlq/TM8oAAAALBJYm74cJVbrrROabUJx/TnZbpNgBOg5WZ6DpV0tX1/97GB9bl+FtwfPjb896PpXk4HVaPVFDRYAAADMJZlCWKV2sUITS9W6XxNhYW0DMWVl2VO3ftRRYfkrfaUzWPtP7augnSF7Mh5cefpK+ld1pU703PQbqMECAACAuVwcB0uZWFJkeduEIorVm+vP+RMHy9sidJvdXwmsjXfsebm8yg7O6mD0trNfzzD6V3VRKwdrEFjTW2hpAAAAgLn0UmB9l6UjscZi99btazh2WyOxAvMq96veg7OEPzlYwsTaV5/Hr7KDI7POsfL28bub1X81CKxaartBZJn38YgAAADAXP6dQlj9W2PCix4TPnWwwib3ycx6oa/cDNZieZW9SLefg+1Bz79qiloaWE7NKEuEAAAAMJsx5f7dX6+uxIooLHX9WXhYo8TKw1VC080Q9JG+FFh3S2B9bF9ZCffgtnNYf2X8q3rqhzBajCVCAAAAmM3vzeYuq7Cu39d9byks3evu3iZcd8LDmgobItaVPz60y0af6yvpYKmQ++flDJaP5Y8HI+uDrn8l5oOV2CFcKS1Gxh0AAADmc1UW1uU68L0vHYklTaw2NibcblNvEGgcrNyPvE+vvBJYk4PV/5nlQb+d4WHbVytHX43+VTH6V6c2a82dHDLuAAAAsACVct+k1+v+6o0J5X3C6JjQvpyTR62sPFKW9UJfmQzWh/aVXh20bzsf1r57pePtk38l5oNFVbTncvg4Tv4VGXcAAABYwphyT4SBNYgsb51wTGLVzm3CW6eWCRPrbo6bxQr73t0M1u4PO1iR7itrPFiF9pXWV8q/+hINDcPvmQ3qani/0WP/5QEBAACA+fy9ue9ECkvKK6Ww+lBh2bXut+OxSoWJ9XybMPfPEr7rYN3LT/0rLbT88aDDpK8a419Vwr86n8uubNZaiNHjDgAAp5z38AAAGgVJREFUAEu46BmhNLF6x8OaGrEi15+t0lG3lCEMYflFo7u4gzV8bQ8f+FeZLbOit51Xx+f+VVGdhLo6n9vbTb+TCBYAAAAsoVQCa3OVi4RXaWL564TB9efjrZQeVrKN7RA6civiYO2eOliXwxJ5lQUbhP540ISqrHj7oK8mA0v2twsD61ye69tNzwh5PAAAAGAJYwhL7REq9r6JFRsTtiKFpceEuWNWxaXWC301ZbDmO1iRbobgtvMqHm8f9JU0sEQ/Q1UVJxFw786dfHFNBAsAAACW83szVmFd0nT0sK5XO4j1rNZdjgkTy8OKtGDlbxpYSx0sW11l06DQbA/eXsSvbkJeKf9KnZduz52QWJV6lQgWAAAAfMDYhLVJBmQSy+trKF0PywSxbqV0sMZtQqeYIfeLsKxbObs/52AF3pV72zk4PejFrxrlX43nD2VDw/n8sAQWESwAAABYxr+b+04JrFRorIvSWHt3m7DtvL4Gf0zorxC639kO1u6Fg3U9LCtvt9qvvPGgm29fO/VXX6N/JSaEp07kr7qyvZkRIYcIAQAAYCG/xhnhLlESKxrEEhrLD2INEqu+qs7RrTnqnLvayjK2Xuir3W6+g3Vwrw6qP/ztwZVjYq3d9cFm9K9kf7uUV4MsswQWE0IAAABYysWeESoLSyaxemubcDxNOHpY1jZhL2vdAxMr9Xuw8pcTwmlEOMPBOsTwxoPP4lfj+uCX2h8sBn116GQCa4y4MyEEAACAD5n2CHfSwEqT+DahHBNWrdvXMAiRbmsUlrGwcv8Y4Q8G1mamgxX0ij7fHtQmlr8+2Iz97fL+oExgyY6G4Q1KYDEhBAAAgMX8kvLqPjlYyUVWustPZ5twGhPW3pjwYkpHLQfLrWzIfxBYd9kz+raDdfDiV9HxoMv6FtRfyQPPwr9qs05WYJ27hzUh/IdHAwAAABajZ4TKwTIWlnf9OXY4Z+CxF30NcpswqMF6M4E1ZbDeE1hR+8oaD64j8StHXo397bVaH2wzmcAqO93RoAQWE0IAAABYzjgjvCfWIuFoYn33sUas2h0TrsvE2SbM/ci7cbB2u93HNQ0H37+SX0+2B0eVdTPrg2o6KO4PFlpfdUJeDSLrYUWwmBACAADAB/wtAliRRcIn24RV1VpBLDkmrFI7iJVGjhG+1lczahocVZUF9pW9PRiNt3+peHuh+turoj2YBFb7YIcQAAAA/hB71eU+VmGltoXl1bq724TemFC0YtkZLGdg+FpgvbtFGK8WDcaD7gXCtdXePiBC7uJ/LwtGD9LAKuUOYVvX1g7hb54LAAAA+IBpj3AzDQltB0sorPLJ4RzTOTrVursxdy+Dtdt9lsFy7uJYHVj+ePBJ+9VYfzXoq0LNB4tKyKs2O0v/qqvq4qEFFncIAQAA4DPSSWGlapUwtQys6/W7NyaW7HSPBbGO1TZJxm3C3C3E0i1Yu48crMMTXm8PmvHgrdH7g+N8sGoPrRgQqis5XV3UjZ4Q/oenAgAAAD6iFBl3EcMS4kofJZwOEwaNWF00iNVcrb6G3G8bfW1gvZHBittXA/q28/oYyV+58asvdX6wmPoZ9IBwUFhVXdXFJLD+4qEAAACAz/i9sYaEU5+7drD20c7RMIh1K4WHlSZbe3nQ2iHcfeBgBVcHR63Van1Vh7uD9njw0TTGv5L9DJWSV6IBq+9FAqsYPqYJIRF3AAAA+JR+49S5Wx7WPtqINR5/NkGsx1FEsTrr+nNu59zzHxysnzJY5uSgJbKyQR9pffU4+u3t0fjVl+gXFeqqOLVigXD4m72gFANC5WARcQcAAIA/wq/NuEgoNwnVnHCysMY41s9BrIFajAmTJDxN+IO+eu1gBbXth9G9CsaDP7W3m/XBqm3FBULhXkmBNaguUe0+Cixa3AEAAOBz9hsdw0qmMWF6degjy4RuEGvQJo9eOlhCYvk9o7uFGSw7emU1M9j6qrB9q7C9/Talr/T+oMhfHUS8XflXfZ/JYFbRjBF3DCwAAAD4nH8HdTUNCZNkoxtH9/an3zkaBLGE+zOOCRP32PNiB8ubCmobq82C8aCfcA/9q0L5V1JfZa2lr/rh1xAO1oOOBgAA+D97Z9bbOJIEYcx6ehcNGJrRSZOSWiLNm835/z9vWJmVVVlFSvYC8vEQnywfgG0YkB8CkZGRADyOchtwWDKxUtU52gWXCdXxZ3P9mZYJ90Gn+119dSuDFfWK+h3CIfPx9oXx4ErLq37jrw/a+iuzP0j59twZWCbhbiaEOEMIAAAAgIfxTCmsxq8TJjudxHKt7sGY0ETduyiIVZladzsllDHhr7f01ZKDdVyOXvFw0G8PFl5TLdpXfSv9V0ZCcf2VyV/R/qDVV9djXZgJIQwsAAAAADyUF+NbSRArLGx4K4hVB41Yk7gZzNEcezeHVdZ9feUyWNmsRTQMX2WTLjpq+0qPB9WM0Kmrvid5Zf2r2vhXZ5JXndJXY5YVNdeMwsACAAAAwAMx93K8gbVtnIm1D0ysUV0mHG6OCQtjYO32ZGId3lJX7GA1c4E1OzpI1tWEO45zXCxv1wKLbzub9UFjUYl/FemrY3au+VAODCwAAAAAPJIXlcAKTKwkOE2YRlPCSa7MOkerU1/KNuHhXcwcrEzPBjPeG7TDwaXx4GppfZD9K3aw2L6y/pXrF7X+1STZuKMBBhYAAAAAHsqTa2po7LTQ1Y6+lrrYPdcmFkmsKIhVca07LRPud+/RV00osLKZgZVlA0mrYHuwfcu+6jl9xePBi+SvslhfHcnCMh0N6MACAAAAwGNJxb/a+sD7LrxNmM4uE5ohYefGhOr4s7n+zLXu7xBYKoOVzRJYLK7og9FXQ3DbeXVre7CX8eCmde3txcy/KsdrRpynPx4l7gAAAAB4NE8qfyUe1laVjqZOYukgFu0SksYKG7FoTJjQ+ef/28HyW4M0FuycxlLlokUUbF8txa82YX175/0rt0CYOQerxhVCAAAAADycXC0ROg9LxoT+MGFKd3PeDGJNUienbcJk9+s9GaxGBJbMCTlvZWaCA73vjIUVjgdXd8aDrewPkn9l1wfj/BUNCMXBMr/gD/wbAAAAAOCR/EzEwjr4YSG3uiessMqFINZgx4RdMQtinbr9zswJd+92sAZKnGdWXPGXHR/Gof3BYDw4L3CP5oM0HqxrX381yavueg0XCMnAOk5/O/3OP/FvAAAAAICH8rwNpoSN5LDcNmGqW91z3ereUdR9FsSSMWHy3gxWl3XOuOqczOpYaEn86rwwGgzKRd36oL2OI/4VbyAOqgDLyrlzfelR0QAAAACAj+BFGhrExaL37GBJ1J3WCdOw1d1NCaPjz5XZJty9rbDYwWpKVlWsp2Rn0BtY79werGy7qHGw7HUc8a+Og5FXWl8dOYM1fR8qGgAAAADwITxJC9bBZd0bf5kw8rBGPSa8FcSiMaFRWLt39WCJXyWVDB2vDlIQKxoPrqL54OL6oMTb1fqgD2BdM54QmiJ3NrCQcAcAAADA43l200G/SGgvE/JpQolhTc+XIOoeBrGUh3Vqyx1F3d/OYKVZ0MeQ+Wy7bxc9r5fSV1Wkr2Q8yMed1fqg8q+uIq9Mjzu5Yj/wDwAAAACAD6DcboN7OXZmuBOJpZPu5YLCCk8TnmRMSC7W3QwWn8phu+ro/CuSWEdV3l5rXbW6tz3YunS7Xh+MCrA44y4VDRgQAgAAAOAjeLKSSuoapLTB1mFRq7trayjT4DKheFhFdPyZxoSm1D15c4uQ41dDphWWOo6TvXl70G8PLvlXKt8+ZmpAWPfocAcAAADAx5GrY4T6w0GWCffKwrrX6h6PCe9G3bkHawzjV+64czQevGVfiX+1sduDF+df2XoGNR+UgPv03nSMYkAIAAAAgI+k9LYVx7DsV7twmVA0VnCZcNAelu4cpTHh7cuEDU0ITQZLtghtAIviV9F48I59JeuDtD2o29uPw9X3t5euYPRoNwgxIAQAAADAh/K0UzcJRV3RJ7YOy3hYqStsCIJY9m5OoLDs8WfZJkzu9GClJK2Oejo4Hw+uQhOrmo8HNzZ+FbW3X4dc+1fWwTpigxAAAAAAH8+zKKrGFWLZanexsHZqSGiWCfVlwk4rLIm6k8bibcJFhdVwyH3M4uFgl93YHly0r+z6YB20X/n1QT8fPLp8u7mRU6NiFAAAAAAfzejjV25U2JChZcsa3GVC+xa0ugd1DX5MOD378WYjlnKwXL8ofRD7ql+6PVhF+oriVxs7HfT2lZ0xKv+qPoqDZQJYRrr98ROvOwAAAAA+kJ+v9s6zv0oow8JELhO+lgq1TOiCWN2CwqJtwqW+BrtFOEbDQZ7sTUqojZqv5t2iLn7FtwfV9uCRtwcDfVWcXQNWXeAGIQAAAAA+ARvDkspR7WZZB0ta3VNbOxrezbEmVh0Fsaa3utyRxpo7WGpEOLiqBtZXdXTS+bQkr+x8kMoZaDx4tsdxstC/Kid9VV/OdkJY1JcWDQ0AAAAA+AyetxEcxGqoECux64Taw4qj7trDckEsEllUOjobE4qDNU+3i321upe+kvHgxdpXNn3F48EhqL8aTa1ofc5swB0BLAAAAAB8FrnVU1w6GmgtV4hlO0etiTUuBLG41D0cE1aLY0I9IpSn1VfVwmWcYHfQ2lc23E766hKVt1+dfTXpq+k76jMF3AsbwPqBABYAAAAAPoFU97gfQpXFDlay2ycqhrXUORoqLNkmpDFhvE3Y/OVGhFpfXbtF+2qt5VVvuxnMdLD25VeSbg/iV6MJtU8ijAJYBRqwAAAAAPCZ/HwVw6qRxtHGhbEkhuWDWDda3Z3C4jHhmhVWP+4XDudMvz+VbgbfzlDNzKtoOGhvD3K4ncqv9O1B42DlubOvrpe2LkxKK2P/qugRcAcAAADA52GC7s0hKBrduq3Cg7S6++PP6f0gVrhNOJTl/nX/K466p87BmuurW7uD1MzQXtTpwbMuZ8hV+9V43Ww25rvqgvyrS42GUQAAAAB8usLa6pOEIrQO4mEltnPUjwnDIBYrrCiIxduE3aSwytky4Ys4WIPWVyttXy2Gr5x9ZZcHSWDZdLsaDx7tIHHSWGezP1hjgRAAAAAAn8yz7hmVLULxsg4sr3Ym6u6T7nFfw9I2ofQ1TAqrjBRWkpOBJbcHr/3pjdVBHb5i/ypMt2v7arxM37sxNaRGW5knBdyxQAgAAACAT1ZYzaHZ3kBMLHOasPSTwqUglr2cI30NJLH60XhYZZKoQWFZXjMnjdzxwdvySoWvlH1l5dVwzVX5lRkPtpveqrHiYmQW9BUAAAAAPp/cl2C5DJYvHnWXCZNSZ92XPKxOX3+mMaFpxKIxIT1IaSWv0ydWXA2uvX11K3vF8orDV9q+6ly6XdtX2WZSVxvOYPGPoKABAAAAAF+psGzwSu7mNM7DEo2lLKywEcuPCZWJZRQWR91JWjmZZR4jB9Ort4eDLZ0dXLCvMptuV+mrsTbjQedgFdBXAAAAAPhShcWyqtmGXViNi7rbVneXwnrPmJCGhJUNYu2dzpre8iB8FWfbe30WZ8PFonwah7uv+PQgG1hKXh2r3vhXvdFYRl6Zn6pw4RkAAAAAX6ewrK7iwWDY736QKaEcf04XGrHkNKGVWK6vYZJNfS7yyo4KRyoXXUfm1WmhVrRldWWrr1he8fLgVXVfmfjVtV2vzXCQJFbNA0XoKwAAAAB8scLimtHlpLsUYr16eRUFsW6ZWCSyitDDMvGr9o68alW0nQsX/OVBn24PpoPnal2tybwyUAsWzwehrwAAAADwVYzqZI7vaTg0tuNdhoQ2iJXOjz/n2sPyJla/pjFh1XkLywwIi3VQKhqbVySvNmJeaX1lu0UjeXXt15O+Wlv/qr+wgwV9BQAAAICvJddl7ocm9rO4ECuhuobU17pHY8IhGBO2ak54qoq8ZANrHOr1gnnVh/LqwsH2C2srb18d7fKgkldjQfKKHCzaIqRLhMi3AwAAAODLeY7cKwllbeeXCb2FNY+6z5NY7GIZJVWbbcO+WgfiKpZXtpeh5nvNWl2pblEVvhqvZjo4Pf6ueEJoDKwC+goAAAAA30VhNSKoDqpp9O5lwmhMGCksNrH6Sjob4uDVesm8EvfKJtudvOqySaAF8oqq21lcGQer2nBFw/SgiNd/oa8AAAAA8A0UllSNbjl9daDZIEssa2DpRiySWOm9rLtILKOx2K862UuFQSdDZF5p96pzmBFkLK8yZ19N702+vSX/ivUVXlIAAAAAfL3C2vn2KxfIUgorUY1YqtW9zMdwTrgssYzIqnSmXakrkVe8NGgk0oK8MgPIIQhfdet/TmtWV8bD6jecjL/0uO8MAAAAgO/C02vY4m6NKyux+DNOu786Cyu9NSZ0CstlsZzMInEVyitRVyp4FZpXZGDl6u7gJK9+r36vnH9V/b3ZtHThmWTc//ByAgAAAOBb8PNl6zJYcgL6YCVWYuWVRVtYZkw4LplYcuWmbtv+FnLJ+RKqKyWvOjavJnmlxoPdaZJX05uTV9Wa9VVLIfo/8WICAAAA4Lsw0ohQLCzSWIlrwdodWGeR0toHYfdlE6srvMaq+/amuNLXBiNxRc5VR+pK9FXp5dXv1VosrKpnfWXk1Y//4JUEAAAAwPfheRs3NSw7WHw5J/V59yCJ1dlOrMDGMk5W3Qp1RHFDXhn3KlfyyvS2n4y4osdqLRbWv+3dWW/aWBjGcWXIhmRQHUhdI6vNAdvxgvP9P96cfQFC29FcAPn/kpp00dzMzaPnvH6P+W82vD4IAAAuz6xI9jRIP9dRsvrpOix3OaE/KoxLrDRibdvfOB2u3OiVSPPVttp/mPrKzWCp+SsT2nLG2wEAwCWal77D0nNY7+ZscB02YYUzw3U87J6WWGEUy1yfs/1ttkrTVZ+kKxewRGeqK9dg2R1YthVT+Spn/AoAAFygLL6U0OwYdYFKv0Ho9jWkS7GOSqwoYumQ5YKW/YqS1UG0spNXcboy+WocPly4st/fVH9lXkNsu4bt7QAA4HIT1nq1SlY1FCFRmeH2IvRYtr46upzQRawoY/XbA/2ZeCVS09hV+/1Bvlq66Sup4XgQAABcMntMaHusqK9aF66y2vnR97jDOh+x+m38ZT5OhStxpB+W7lRwv/cHhCpg2S1agzoevOPtQQAAcMFUieUWNnyPlri7Ne5xjeVH3fXVOZM4lbHGOEQdx6qz6Upsm33UWu0X/qeqi+sr3h4EAACXbfYj3eZemHcIw2B7qLHq+kyJ5fZiheVYn2Sr/nS4EmO3TOKVabAW8rG07VWn78ZhuSgAALh8YRKrcCsadNTambIq1Fi7qMEqT0WsELJOxSz3N6fSVd9W++S1QVdgSXb4qtWng9RXAADgKsxKd/dzWOAeN1alu+x5Sgqs0xFLh6yxdweG9nMcx0+rK9EfjrX7XzJjLYb4dPCO+goAAFyJrAinhEERwpV5c/BNZqyowKo/i1gqZYkxJT4JV20T1Vbmsdib9kodD6ang8/UVwAA4GrMhb0657stsXSHFd9CWNcyX6lvIaYyHndPboD+G2PfNfZdwShduT/RP6eng1w9CAAArsusXB21WElTVU8mYZmYNYW/qf9LtmqHKuxhcPfh7E1rpR7qtz5e6dPB6on/SQAA4NpkO7/S3V5FuEsXM4goYb0JPVA1qTND02FNf5OtPvZHM+3uQ6Ur+fCzV2b4itNBAABwpRFrnbRYrwd7GVSE0meE6vE2Rlut/iBXyX++bdWZ4EdcXEXb2hd7t5xBLb7y8coMX/HuIAAAuFZzYSPWu147moxa1WWZNlh9v9GrFzaHGxncDnf1aNt2GJq80kNUVa7uGFwuD98YXLp3BlVzJf/e3YrTdnY1A8NXAADgmiNWtl69h9Wju6TCEv6QUH30Olht7BXPkbbzhsEMUOXqWz7SXaLJueDCFli5L6+6htl2AABwGxErarFkxIrfI5z8i4TqaSss9Z0GrCHyMuQmWpmIlcxdhXF2dzK4rFx51bWDORx8YPMVAAC4pYilTO6FwdINYfkvX2FtdMJq3aMbmhcZrZoX9aEaLJevKlthhZNBu/FKP5d5E1VfZrSdw0EAAHAzEctuHn1f1aaymuzedj/jflBhJR1Wq6urRj1lxHppmtBg+YQVXhi04+3N4AevutaUV9Uz8QoAANySrLYFlhtsn8oyzF+Zh71wcHN4Sqiqq0ZVWDZmhQZL/vq2tBbmsVhWeZyuFBYzAACA2zSbdMCyc1dv/jP8+GbDlZ50d4eE+oxQDV+pAkt9yLDl+isbs77Jr2W+VD/IPwhjV+54UP6bhyfiFQAAuEXzbLeejuNV+O5PDLqrlKWbK1VgqWfjKqzobUIbt0J15dOV3tvO2SAAALhhs6kOQ1fuexxN4FLl1Wj6q01ySNiZGXdbZL00uU9WuY1ZMluFcNWFxQ4yi1FeAQCAm5cJkUxevelTQRmyzJZRW2CN6RSWXdLQ+AYrLGvIk2yVpKtGpivKKwAA8BXMM3c/TvTyoO2tRrOnYTS7Glq/a3TQE+66wHKb3HWyiqNVfDKo0tUdR4MAAOALmYX9DHYxg+2tNr37bbpuVG9xt3Hql553Pxmr3FLRnO4KAAB8QfNMTJKYdIdlzwejCqsPQ+7er+P7c1q/7cofDObVI3NXAADgq5plpdry/lqK0Yer0f2wPSukq/iuwqaR4YrbcAAAACGr0LcUTuY9QndEeD5fxVdAR83VM+EKAABAm2emylqtX9UVOurU8Gy4atNNoqq4enhk6AoAAODALMumOtwLvS5U0hJilFSjZaKUzFJmx2il3iDUv314fL4nWwEAAHxqnmViqovVoak6dCeT1RPRCgAA4I+D1izLVNYqyx91vSsK8XD3ID0+ylT1dH//D68JAgCA/8O/+H5GlTt19GAAAAAASUVORK5CYII=;" parent="1" vertex="1">
          <mxGeometry x="540" y="747.5" width="240" height="60" as="geometry" />
        </mxCell>
        <mxCell id="zH6UamQ9nqufOHWTHNJz-26" value="&lt;span style=&quot;font-size: 27px;&quot;&gt;&lt;b&gt;Autres processus du système&lt;/b&gt;&lt;/span&gt;" style="rounded=0;whiteSpace=wrap;html=1;fillColor=#CCFFCC;strokeColor=none;align=center;gradientColor=none;fontColor=#505050;" parent="1" vertex="1">
          <mxGeometry x="18" y="720" width="322" height="115" as="geometry" />
        </mxCell>
        <mxCell id="zH6UamQ9nqufOHWTHNJz-33" value="&lt;span style=&quot;font-size: 27px;&quot;&gt;&lt;b&gt;Machines &lt;br&gt;virtuelles&lt;/b&gt;&lt;/span&gt;" style="rounded=0;whiteSpace=wrap;html=1;fillColor=#f8cecc;strokeColor=#b85450;align=left;gradientColor=none;" parent="1" vertex="1">
          <mxGeometry x="350" y="480" width="458" height="220" as="geometry" />
        </mxCell>
        <mxCell id="zH6UamQ9nqufOHWTHNJz-28" value="" style="shadow=0;dashed=0;html=1;strokeColor=none;fillColor=#121212;labelPosition=center;verticalLabelPosition=bottom;verticalAlign=top;align=center;outlineConnect=0;shape=mxgraph.veeam.ms_windows;aspect=fixed;" parent="1" vertex="1">
          <mxGeometry x="580" y="494" width="90" height="90" as="geometry" />
        </mxCell>
        <mxCell id="zH6UamQ9nqufOHWTHNJz-30" value="" style="sketch=0;pointerEvents=1;shadow=0;dashed=0;html=1;strokeColor=none;fillColor=#000000;labelPosition=center;verticalLabelPosition=bottom;verticalAlign=top;align=center;outlineConnect=0;shape=mxgraph.veeam2.linux;aspect=fixed;" parent="1" vertex="1">
          <mxGeometry x="580" y="600" width="90" height="90" as="geometry" />
        </mxCell>
        <mxCell id="zH6UamQ9nqufOHWTHNJz-31" value="" style="shadow=0;dashed=0;html=1;strokeColor=none;fillColor=#121212;labelPosition=center;verticalLabelPosition=bottom;verticalAlign=top;align=center;outlineConnect=0;shape=mxgraph.veeam.ms_windows;aspect=fixed;" parent="1" vertex="1">
          <mxGeometry x="694" y="600" width="90" height="90" as="geometry" />
        </mxCell>
        <mxCell id="zH6UamQ9nqufOHWTHNJz-32" value="" style="sketch=0;pointerEvents=1;shadow=0;dashed=0;html=1;strokeColor=none;fillColor=#121212;labelPosition=center;verticalLabelPosition=bottom;verticalAlign=top;align=center;outlineConnect=0;shape=mxgraph.veeam2.linux;aspect=fixed;" parent="1" vertex="1">
          <mxGeometry x="694" y="494" width="90" height="90" as="geometry" />
        </mxCell>
      </root>
    </mxGraphModel>
  </diagram>
</mxfile>
